<svg width="26" height="24" viewBox="0 0 26 24" fill="none" xmlns="http://www.w3.org/2000/svg">
<path d="M21.5248 3.7485C22.7461 4.9169 23.2606 6.58529 23.2611 8.24375C23.2623 10.2269 22.5909 12.1822 21.6259 13.8929C20.4702 15.9256 18.8912 17.6847 16.9955 19.0512C15.3317 20.2489 13.3942 21.1645 11.3476 21.426C9.67868 21.6376 7.89723 21.3925 6.52824 20.3487C5.19695 19.3391 4.50421 17.7632 4.37308 16.1253C4.21869 14.1906 4.76269 12.2348 5.61548 10.517C6.65807 8.45033 8.13097 6.63232 9.93529 5.18497C11.5687 3.86323 13.4998 2.8249 15.5752 2.40488C17.2462 2.06858 19.083 2.14454 20.5843 3.0347C20.9227 3.23645 21.2376 3.47523 21.5234 3.74663C21.621 3.83752 21.8426 3.57314 21.7409 3.47662C20.466 2.26986 18.7034 1.83481 16.9888 1.93646C14.9125 2.05911 12.9081 2.88869 11.1812 4.01339C9.17368 5.32894 7.4695 7.0572 6.18145 9.08382C5.07639 10.8434 4.25757 12.8688 4.10689 14.961C3.98309 16.6683 4.33082 18.4509 5.45118 19.7944C6.57153 21.138 8.24348 21.7565 9.94228 21.7939C11.9734 21.8387 13.9731 21.1401 15.7118 20.1414C17.7794 18.937 19.5631 17.3011 20.942 15.3445C22.1777 13.6017 23.1167 11.5905 23.4262 9.4615C23.6755 7.7402 23.4948 5.87335 22.5119 4.39687C22.2901 4.06466 22.0327 3.75764 21.7443 3.48131C21.6459 3.38531 21.4234 3.65037 21.5248 3.7485Z" fill="#4A3AFF"/>
<path d="M23.9216 4.56867C25.0911 6.1759 25.3354 8.21849 24.9725 10.1328C24.5359 12.4559 23.3238 14.5784 21.8127 16.3626C20.0408 18.441 17.8472 20.1177 15.3768 21.2819C13.2043 22.3082 10.7787 22.9415 8.36307 22.8155C6.39912 22.706 4.40812 22.0374 3.04518 20.5567C1.71987 19.1158 1.26225 17.1411 1.46239 15.2306C1.6999 12.9478 2.76836 10.7966 4.1369 8.98715C5.79858 6.81806 7.90709 5.03278 10.32 3.75188C12.4777 2.59734 14.9009 1.82544 17.3615 1.77981C19.3624 1.74781 21.4534 2.22612 23.0007 3.56987C23.344 3.86732 23.6529 4.20235 23.9216 4.56867C24.0286 4.71572 24.2787 4.48072 24.184 4.35053C22.9704 2.69237 21.0528 1.81284 19.0575 1.55429C16.6654 1.2449 14.2097 1.75827 12.0007 2.6579C9.40623 3.72754 7.07167 5.34025 5.15322 7.38816C3.46579 9.18896 2.07917 11.3639 1.4513 13.7675C0.94298 15.7174 0.966253 17.8722 1.97938 19.6648C2.97102 21.42 4.76315 22.5097 6.69206 22.9183C9.00552 23.408 11.4463 23.0546 13.6581 22.2903C16.2891 21.3578 18.688 19.8707 20.693 17.9294C22.5064 16.1802 24.0274 14.0564 24.8482 11.6571C25.5151 9.7093 25.6974 7.50954 24.8748 5.57261C24.6915 5.14224 24.4604 4.73377 24.1858 4.35495C24.0754 4.20322 23.8269 4.43848 23.9216 4.56867Z" fill="#4A3AFF"/>
<path d="M23.9216 4.56867C25.0911 6.1759 25.3354 8.21849 24.9725 10.1328C24.5359 12.4559 23.3238 14.5784 21.8127 16.3626C20.0408 18.441 17.8472 20.1177 15.3768 21.2819C13.2043 22.3082 10.7787 22.9415 8.36307 22.8155C6.39912 22.706 4.40812 22.0374 3.04518 20.5567C1.71987 19.1158 1.26225 17.1411 1.46239 15.2306C1.6999 12.9478 2.76836 10.7966 4.1369 8.98715C5.79858 6.81806 7.90709 5.03278 10.32 3.75188C12.4777 2.59734 14.9009 1.82544 17.3615 1.77981C19.3624 1.74781 21.4534 2.22612 23.0007 3.56987C23.344 3.86732 23.6529 4.20235 23.9216 4.56867ZM23.9216 4.56867C24.0286 4.71572 24.2787 4.48072 24.184 4.35053C22.9704 2.69237 21.0528 1.81284 19.0575 1.55429C16.6654 1.2449 14.2097 1.75827 12.0007 2.6579C9.40623 3.72754 7.07167 5.34025 5.15322 7.38816C3.46579 9.18896 2.07917 11.3639 1.4513 13.7675C0.94298 15.7174 0.966253 17.8722 1.97938 19.6648C2.97102 21.42 4.76315 22.5097 6.69206 22.9183C9.00552 23.408 11.4463 23.0546 13.6581 22.2903C16.2891 21.3578 18.688 19.8707 20.693 17.9294C22.5064 16.1802 24.0274 14.0564 24.8482 11.6571C25.5151 9.7093 25.6974 7.50954 24.8748 5.57261C24.6915 5.14224 24.4604 4.73377 24.1858 4.35496C24.0754 4.20322 23.8269 4.43848 23.9216 4.56867ZM21.5248 3.7485C22.7461 4.91691 23.2606 6.58529 23.2611 8.24375C23.2623 10.2269 22.5909 12.1822 21.6259 13.8929C20.4702 15.9256 18.8912 17.6847 16.9955 19.0512C15.3317 20.2489 13.3942 21.1645 11.3476 21.426C9.67867 21.6376 7.89723 21.3925 6.52824 20.3487C5.19695 19.3391 4.50421 17.7632 4.37308 16.1253C4.21869 14.1906 4.76269 12.2348 5.61548 10.517C6.65807 8.45033 8.13097 6.63232 9.93529 5.18497C11.5687 3.86323 13.4998 2.82489 15.5752 2.40488C17.2462 2.06858 19.083 2.14454 20.5843 3.0347C20.9227 3.23645 21.2376 3.47523 21.5234 3.74662C21.621 3.83752 21.8426 3.57314 21.7409 3.47662C20.466 2.26986 18.7034 1.83481 16.9888 1.93646C14.9125 2.05911 12.9081 2.88869 11.1812 4.01339C9.17368 5.32894 7.4695 7.0572 6.18145 9.08382C5.07639 10.8434 4.25757 12.8688 4.10689 14.961C3.98309 16.6683 4.33082 18.4509 5.45118 19.7944C6.57153 21.138 8.24348 21.7565 9.94228 21.7939C11.9734 21.8387 13.9731 21.1401 15.7118 20.1414C17.7794 18.937 19.5631 17.3011 20.942 15.3445C22.1777 13.6017 23.1167 11.5905 23.4262 9.4615C23.6755 7.7402 23.4948 5.87335 22.5119 4.39687C22.2901 4.06465 22.0327 3.75764 21.7443 3.48131C21.6459 3.38531 21.4234 3.65037 21.5248 3.7485Z" stroke="#1A96F0"/>
</svg>
