<svg width="124" height="124" viewBox="0 0 124 124" fill="none" xmlns="http://www.w3.org/2000/svg">
<rect x="6" y="6" width="112" height="112" rx="56" fill="#F3F8FE"/>
<rect x="6" y="6" width="112" height="112" rx="56" stroke="white" stroke-width="12"/>
<path d="M62.0299 38.6667C55.9165 38.6667 50.9465 43.6367 50.9465 49.75C50.9465 55.7467 55.6365 60.6 61.7499 60.81C61.9365 60.7867 62.1232 60.7867 62.2632 60.81C62.3099 60.81 62.3332 60.81 62.3799 60.81C62.4032 60.81 62.4032 60.81 62.4265 60.81C68.3999 60.6 73.0899 55.7467 73.1132 49.75C73.1132 43.6367 68.1432 38.6667 62.0299 38.6667Z" fill="#1570EF"/>
<path d="M73.883 67.0167C67.373 62.6767 56.7564 62.6767 50.1997 67.0167C47.2364 69.0001 45.603 71.6834 45.603 74.5534C45.603 77.4234 47.2364 80.0834 50.1764 82.0434C53.443 84.2367 57.7364 85.3334 62.0297 85.3334C66.323 85.3334 70.6164 84.2367 73.883 82.0434C76.823 80.0601 78.4564 77.4001 78.4564 74.5067C78.433 71.6367 76.823 68.9767 73.883 67.0167Z" fill="#1570EF"/>
<path d="M87.6729 51.1266C88.0462 55.6533 84.8262 59.6199 80.3695 60.1566C80.3462 60.1566 80.3462 60.1566 80.3229 60.1566H80.2529C80.1129 60.1566 79.9729 60.1566 79.8562 60.2033C77.5929 60.3199 75.5162 59.5966 73.9529 58.2666C76.3562 56.1199 77.7329 52.8999 77.4529 49.3999C77.2895 47.5099 76.6362 45.7833 75.6562 44.3133C76.5429 43.8699 77.5695 43.5899 78.6195 43.4966C83.1929 43.0999 87.2762 46.5066 87.6729 51.1266Z" fill="#1570EF"/>
<path d="M92.3405 72.7101C92.1538 74.9734 90.7072 76.9334 88.2805 78.2634C85.9472 79.5468 83.0072 80.1534 80.0905 80.0834C81.7705 78.5668 82.7505 76.6768 82.9372 74.6701C83.1705 71.7768 81.7938 69.0001 79.0405 66.7834C77.4772 65.5468 75.6572 64.5668 73.6738 63.8434C78.8305 62.3501 85.3172 63.3534 89.3072 66.5734C91.4538 68.3001 92.5505 70.4701 92.3405 72.7101Z" fill="#1570EF"/>
<path d="M36.3596 51.1266C35.9863 55.6533 39.2063 59.6199 43.6629 60.1566C43.6863 60.1566 43.6863 60.1566 43.7096 60.1566H43.7796C43.9196 60.1566 44.0596 60.1566 44.1763 60.2033C46.4396 60.3199 48.5163 59.5966 50.0796 58.2666C47.6763 56.1199 46.2996 52.8999 46.5796 49.3999C46.7429 47.5099 47.3963 45.7833 48.3763 44.3133C47.4896 43.8699 46.4629 43.5899 45.4129 43.4966C40.8396 43.0999 36.7563 46.5066 36.3596 51.1266Z" fill="#1570EF"/>
<path d="M31.692 72.7101C31.8786 74.9734 33.3253 76.9334 35.752 78.2634C38.0853 79.5468 41.0253 80.1534 43.942 80.0834C42.262 78.5668 41.282 76.6768 41.0953 74.6701C40.862 71.7768 42.2386 69.0001 44.992 66.7834C46.5553 65.5468 48.3753 64.5668 50.3586 63.8434C45.202 62.3501 38.7153 63.3534 34.7253 66.5734C32.5786 68.3001 31.482 70.4701 31.692 72.7101Z" fill="#1570EF"/>
</svg>
