<svg width="488" height="347" viewBox="0 0 488 347" fill="none" xmlns="http://www.w3.org/2000/svg">
<rect width="488" height="263" fill="#D2E5FC"/>
<rect width="488" height="347" fill="#2E90FA" fill-opacity="0.1"/>
<g opacity="0.4">
<path fill-rule="evenodd" clip-rule="evenodd" d="M362.817 165.274C360.886 160.331 360.056 155.027 360.386 149.73C360.715 144.434 362.196 139.273 364.725 134.607C372.304 118.345 389.068 102.233 411.353 91.6426C433.639 81.052 456.526 78.5424 473.491 83.2103C478.596 84.3192 483.39 86.5526 487.523 89.7478C491.656 92.943 495.024 97.0197 497.383 101.681C503.456 115.283 498.487 133.051 484.132 149.313C484.008 149.451 483.94 149.63 483.94 149.815C483.94 150 484.008 150.179 484.132 150.317L504.209 173.506L466.213 165.475C466.134 165.439 466.049 165.42 465.962 165.42C465.876 165.42 465.79 165.439 465.711 165.475C460.363 169.158 454.723 172.398 448.847 175.162C426.511 185.753 403.674 188.313 386.709 183.645C381.613 182.547 376.826 180.329 372.693 177.151C368.561 173.974 365.188 169.917 362.817 165.274Z" fill="#1A96F0"/>
<path d="M354.812 135.256L354.824 135.234L354.835 135.212C363.507 116.628 382.744 98.1294 408.403 85.9516C434.058 73.7755 460.341 70.9255 479.742 76.2566L479.764 76.2625L479.785 76.2672C485.575 77.5232 491.011 80.0527 495.698 83.6716C500.38 87.2865 504.197 91.8975 506.872 97.1693C513.7 112.468 508.169 132.653 491.666 151.326C491.391 151.634 491.239 152.032 491.239 152.444C491.239 152.855 491.389 153.251 491.662 153.558C491.664 153.56 491.665 153.562 491.667 153.563L513.314 178.533L471.773 169.765C471.604 169.701 471.425 169.669 471.245 169.669C471.029 169.669 470.815 169.715 470.618 169.805L470.554 169.835L470.496 169.874C464.344 174.105 457.856 177.827 451.097 181.003L451.094 181.004C425.379 193.181 399.154 196.088 379.754 190.757L379.732 190.751L379.71 190.746C373.931 189.503 368.501 186.991 363.815 183.392C359.139 179.802 355.32 175.219 352.633 169.976C350.452 164.385 349.515 158.386 349.888 152.396C350.262 146.393 351.942 140.544 354.812 135.256Z" stroke="#1A96F0" stroke-width="1.6165"/>
<path d="M391.227 143.19C391.652 143.059 392.107 143.059 392.532 143.19C392.902 143.406 393.185 143.743 393.335 144.144C393.465 144.535 393.465 144.957 393.335 145.348C393.296 145.562 393.213 145.766 393.092 145.948C392.971 146.129 392.815 146.284 392.632 146.402L394.891 151.422C395.017 151.882 395.017 152.367 394.891 152.827C394.863 153.258 394.686 153.667 394.389 153.981C394.137 154.286 393.778 154.484 393.385 154.533C392.948 154.695 392.467 154.695 392.03 154.533C391.81 154.389 391.622 154.201 391.478 153.981C391.342 153.792 391.225 153.59 391.127 153.379L388.918 148.36L382.393 151.321L384.602 156.089C384.63 156.306 384.63 156.525 384.602 156.742C384.649 156.957 384.649 157.18 384.602 157.394C384.601 157.63 384.552 157.864 384.457 158.08C384.362 158.296 384.223 158.49 384.05 158.649C383.916 158.799 383.754 158.92 383.573 159.007C383.392 159.093 383.196 159.142 382.996 159.151C382.559 159.153 382.129 159.05 381.741 158.85C381.312 158.595 380.977 158.207 380.787 157.746L374.162 143.341C374.064 143.111 374.013 142.863 374.013 142.613C374.013 142.363 374.064 142.115 374.162 141.885C374.267 141.447 374.493 141.047 374.814 140.731C374.965 140.568 375.147 140.438 375.35 140.349C375.553 140.261 375.772 140.215 375.994 140.215C376.215 140.215 376.434 140.261 376.637 140.349C376.84 140.438 377.023 140.568 377.173 140.731L377.474 141.082V141.484L380.386 147.808L386.86 144.796L384.1 138.823C384 138.445 384 138.047 384.1 137.669C384.09 137.209 384.251 136.762 384.551 136.414C384.823 136.088 385.193 135.859 385.606 135.762C385.998 135.638 386.418 135.638 386.81 135.762C387.246 135.961 387.587 136.32 387.764 136.765L391.227 143.19ZM412.86 143.792C412.986 144.184 412.986 144.605 412.86 144.997C412.785 145.356 412.611 145.686 412.358 145.951C412.142 146.205 411.836 146.366 411.505 146.402C411.116 146.549 410.688 146.549 410.3 146.402C409.924 146.234 409.608 145.953 409.397 145.599C409.226 145.248 409.024 144.912 408.794 144.595C408.092 143.642 407.389 142.738 406.536 141.785L403.123 143.391L399.709 144.997V146.704C399.709 147.306 399.709 147.758 400.061 148.31C400.037 148.728 400.037 149.147 400.061 149.564C400.186 149.99 400.186 150.444 400.061 150.869C399.943 151.313 399.678 151.702 399.308 151.974C398.968 152.101 398.594 152.101 398.254 151.974C397.884 151.92 397.536 151.763 397.25 151.522C396.88 151.251 396.615 150.861 396.497 150.418C396.294 149.813 396.143 149.191 396.045 148.561L395.744 146.704C395.136 143.137 394.801 139.53 394.74 135.912C394.69 135.613 394.69 135.308 394.74 135.009V133.101C394.689 132.769 394.689 132.43 394.74 132.098C394.787 131.765 394.889 131.443 395.042 131.144C395.238 130.851 395.518 130.623 395.845 130.491C396.279 130.316 396.765 130.316 397.2 130.491C399.016 131.17 400.71 132.136 402.219 133.352C403.776 134.542 405.267 135.816 406.686 137.167L407.79 136.665C408.195 136.515 408.64 136.515 409.045 136.665C409.388 136.794 409.685 137.021 409.899 137.318C410.058 137.596 410.16 137.903 410.2 138.221C410.273 138.535 410.273 138.861 410.2 139.175C410.043 139.486 409.82 139.76 409.547 139.978L410.953 141.735C411.404 142.337 411.806 142.989 412.207 143.642L412.86 143.792ZM403.675 138.773C402.969 138.068 402.214 137.414 401.416 136.816C400.659 136.17 399.853 135.583 399.007 135.059V140.881L401.265 139.777L403.675 138.773ZM424.555 136.063C425.026 136.084 425.488 136.203 425.91 136.414C426.234 136.602 426.496 136.881 426.663 137.217C426.789 137.574 426.789 137.964 426.663 138.321C426.522 138.768 426.262 139.167 425.91 139.476C425.688 139.67 425.433 139.823 425.157 139.928L423.802 140.58L421.543 141.634L418.18 143.19L417.176 143.692C417.002 143.767 416.814 143.805 416.624 143.805C416.434 143.805 416.247 143.767 416.072 143.692C415.729 143.592 415.428 143.38 415.219 143.09C414.923 142.754 414.67 142.383 414.466 141.985C414.225 141.588 414.023 141.168 413.864 140.731L413.362 139.677L412.508 137.769L411.505 135.511C411.204 134.758 410.852 134.055 410.501 133.302L409.648 131.395C409.196 130.391 408.794 129.588 408.543 128.986C408.347 128.511 408.179 128.025 408.041 127.53C407.969 127.233 407.969 126.923 408.041 126.627C408.155 126.371 408.308 126.134 408.493 125.924C408.676 125.706 408.921 125.548 409.196 125.472H410.049C410.313 125.406 410.589 125.406 410.852 125.472C410.983 125.525 411.1 125.607 411.196 125.711C411.291 125.815 411.363 125.94 411.404 126.075C412.458 128.283 413.512 130.491 414.466 132.7C415.42 134.908 416.423 137.067 417.427 139.275L420.891 137.619L424.404 135.912L424.555 136.063ZM438.207 129.839C438.66 129.826 439.11 129.93 439.512 130.14C439.845 130.319 440.11 130.603 440.264 130.948C440.419 131.293 440.454 131.68 440.365 132.047C440.218 132.504 439.939 132.905 439.562 133.202C439.352 133.387 439.115 133.539 438.859 133.654L437.454 134.306L435.195 135.36L431.832 136.916C431.514 137.113 431.178 137.281 430.829 137.418C430.654 137.493 430.466 137.531 430.277 137.531C430.087 137.531 429.899 137.493 429.724 137.418C429.549 137.379 429.384 137.306 429.237 137.202C429.091 137.099 428.966 136.968 428.871 136.816C428.575 136.48 428.322 136.109 428.118 135.711L427.516 134.457C427.341 134.116 427.19 133.764 427.064 133.403C426.763 132.85 426.512 132.198 426.161 131.495L425.408 129.287C425.107 128.534 424.755 127.831 424.404 127.078L423.551 125.171C423.099 124.167 422.748 123.414 422.497 122.762C422.266 122.296 422.081 121.808 421.945 121.306C421.841 121.014 421.841 120.695 421.945 120.403C422.02 120.14 422.158 119.899 422.346 119.7C422.542 119.509 422.784 119.37 423.049 119.299C423.331 119.247 423.62 119.247 423.902 119.299C424.165 119.226 424.442 119.226 424.705 119.299C424.951 119.432 425.146 119.644 425.257 119.901C426.311 122.109 427.365 124.318 428.319 126.526C429.273 128.735 430.276 130.943 431.28 133.101L434.744 131.445L438.257 129.739L438.207 129.839ZM454.469 116.99C454.569 118.192 454.569 119.401 454.469 120.604C454.465 121.796 454.279 122.981 453.917 124.117C453.585 125.217 453.039 126.24 452.311 127.129C451.551 128.086 450.569 128.844 449.45 129.337L447.492 129.99C446.992 130.039 446.487 130.039 445.987 129.99C445.177 130.169 444.337 130.169 443.527 129.99C442.746 129.741 442.003 129.386 441.319 128.936C440.662 128.445 440.071 127.872 439.562 127.229C439.043 126.625 438.589 125.969 438.207 125.271C437.524 124.09 437.049 122.799 436.801 121.457C436.552 120.113 436.552 118.735 436.801 117.391C436.95 116.037 437.359 114.725 438.006 113.527C438.623 112.313 439.539 111.277 440.666 110.515C441.285 110.105 441.94 109.752 442.624 109.461C443.304 109.212 444.012 109.043 444.732 108.959H446.489L448.195 109.26C448.944 109.509 449.654 109.864 450.303 110.314C450.953 110.756 451.529 111.298 452.01 111.92C452.595 112.686 453.099 113.511 453.515 114.38C453.867 115.183 454.168 116.086 454.469 116.99ZM449.45 125.021C449.883 124.554 450.224 124.009 450.454 123.414C450.697 122.818 450.865 122.195 450.956 121.557C451.032 120.924 451.032 120.283 450.956 119.65V117.743C450.733 116.974 450.465 116.22 450.153 115.484C449.829 114.74 449.329 114.085 448.697 113.577C448.173 113.111 447.53 112.798 446.84 112.673C446.145 112.524 445.427 112.524 444.732 112.673C444.031 112.772 443.361 113.03 442.774 113.426C442.185 113.806 441.715 114.346 441.419 114.982C440.992 115.848 440.72 116.782 440.616 117.743C440.467 118.707 440.467 119.689 440.616 120.654C440.757 121.465 440.993 122.257 441.319 123.013C441.651 123.783 442.128 124.481 442.724 125.071C443.183 125.491 443.709 125.83 444.28 126.075C444.857 126.303 445.467 126.439 446.087 126.476C446.707 126.481 447.321 126.362 447.894 126.125C448.468 125.867 448.981 125.491 449.4 125.021H449.45ZM462.249 120.152C462.394 120.592 462.394 121.067 462.249 121.507C462.195 121.908 462.04 122.288 461.797 122.611C461.568 122.938 461.256 123.197 460.894 123.364C460.53 123.525 460.137 123.61 459.739 123.615C459.337 123.659 458.932 123.571 458.585 123.364C458.184 123.141 457.854 122.811 457.631 122.411C457.469 121.991 457.469 121.525 457.631 121.106C457.674 120.687 457.83 120.288 458.083 119.951C458.355 119.647 458.677 119.392 459.037 119.198C459.409 119.004 459.822 118.901 460.241 118.897C460.62 118.799 461.017 118.799 461.396 118.897C461.614 119.039 461.802 119.223 461.949 119.438C462.095 119.654 462.197 119.896 462.249 120.152ZM468.623 117.241C468.765 117.664 468.765 118.122 468.623 118.546C468.588 118.951 468.431 119.336 468.172 119.65C467.942 119.976 467.63 120.236 467.268 120.403C466.916 120.603 466.518 120.706 466.114 120.704C465.714 120.722 465.316 120.635 464.959 120.453C464.564 120.239 464.248 119.905 464.056 119.499C463.916 119.306 463.817 119.086 463.766 118.853C463.714 118.62 463.71 118.379 463.755 118.144C463.798 117.741 463.955 117.358 464.206 117.04C464.464 116.721 464.79 116.464 465.16 116.287C465.538 116.102 465.946 115.983 466.365 115.936C466.769 115.933 467.167 116.037 467.519 116.237C467.764 116.316 467.989 116.446 468.18 116.619C468.37 116.793 468.521 117.004 468.623 117.241ZM472.839 116.387C472.717 115.961 472.717 115.509 472.839 115.082C472.884 114.695 473.041 114.328 473.291 114.028C473.53 113.757 473.82 113.535 474.144 113.376C474.491 113.295 474.852 113.295 475.198 113.376C475.555 113.417 475.898 113.537 476.202 113.727C476.583 113.944 476.883 114.278 477.056 114.681C477.201 114.96 477.277 115.27 477.277 115.584C477.277 115.899 477.201 116.209 477.056 116.488C476.843 117.008 476.451 117.435 475.951 117.692C475.413 117.869 474.833 117.869 474.295 117.692C473.975 117.589 473.68 117.419 473.429 117.194C473.178 116.969 472.977 116.695 472.839 116.387ZM466.013 100.928C465.904 100.466 465.904 99.985 466.013 99.5229C466.149 99.167 466.42 98.8787 466.766 98.7199C466.931 98.6434 467.111 98.6038 467.293 98.6038C467.475 98.6038 467.655 98.6434 467.82 98.7199C468.276 98.8162 468.695 99.0429 469.025 99.3724C469.527 100.309 469.978 101.213 470.38 102.083C470.832 102.936 471.233 103.739 471.585 104.542C471.978 105.309 472.329 106.097 472.639 106.901L473.693 109.31C473.816 109.551 473.88 109.818 473.88 110.088C473.88 110.359 473.816 110.626 473.693 110.866C473.612 111.085 473.485 111.283 473.321 111.448C473.156 111.613 472.958 111.74 472.739 111.82C472.304 111.996 471.818 111.996 471.384 111.82C471.13 111.759 470.896 111.635 470.704 111.459C470.511 111.284 470.365 111.063 470.28 110.816L465.813 101.179L466.013 100.928ZM480.619 112.924C480.496 112.498 480.496 112.046 480.619 111.619C480.664 111.231 480.821 110.865 481.071 110.565C481.307 110.291 481.598 110.069 481.924 109.913C482.27 109.821 482.633 109.821 482.978 109.913C483.378 109.936 483.764 110.071 484.092 110.301C484.42 110.532 484.678 110.849 484.835 111.218C484.98 111.497 485.056 111.807 485.056 112.121C485.056 112.436 484.98 112.746 484.835 113.025C484.644 113.429 484.342 113.771 483.965 114.01C483.587 114.249 483.149 114.376 482.702 114.376C482.255 114.376 481.817 114.249 481.439 114.01C481.062 113.771 480.76 113.429 480.569 113.025L480.619 112.924ZM473.843 97.4149C473.714 96.9724 473.714 96.5021 473.843 96.0597C473.999 95.7161 474.263 95.4338 474.596 95.2566C474.77 95.1791 474.958 95.139 475.148 95.139C475.339 95.139 475.527 95.1791 475.7 95.2566C476.157 95.3529 476.575 95.5796 476.905 95.9091C477.373 96.8795 477.825 97.7829 478.26 98.6195C478.662 99.4225 479.063 100.276 479.415 101.079C479.766 101.882 480.167 102.635 480.519 103.438L481.523 105.847C481.635 106.091 481.693 106.356 481.693 106.625C481.693 106.894 481.635 107.159 481.523 107.403C481.308 107.827 480.954 108.164 480.519 108.357C480.084 108.533 479.598 108.533 479.164 108.357C478.912 108.275 478.682 108.138 478.491 107.956C478.3 107.773 478.152 107.55 478.059 107.303L473.642 97.716L473.843 97.4149Z" fill="white"/>
</g>
<g opacity="0.4">
<path fill-rule="evenodd" clip-rule="evenodd" d="M58.8175 189.274C56.8862 184.331 56.0564 179.027 56.3858 173.73C56.7152 168.434 58.196 163.273 60.7248 158.607C68.3038 142.345 85.0679 126.233 107.353 115.643C129.639 105.052 152.526 102.542 169.491 107.21C174.596 108.319 179.39 110.553 183.523 113.748C187.656 116.943 191.024 121.02 193.383 125.681C199.456 139.283 194.487 157.051 180.132 173.313C180.008 173.451 179.94 173.63 179.94 173.815C179.94 174 180.008 174.179 180.132 174.317L200.209 197.506L162.213 189.475C162.134 189.439 162.049 189.42 161.962 189.42C161.876 189.42 161.79 189.439 161.711 189.475C156.363 193.158 150.723 196.398 144.847 199.162C122.511 209.753 99.6739 212.313 82.7089 207.645C77.6133 206.547 72.8258 204.329 68.6935 201.151C64.5612 197.974 61.1877 193.917 58.8175 189.274Z" fill="#1A96F0"/>
<path d="M50.8125 159.256L50.8242 159.234L50.8345 159.212C59.5068 140.628 78.7435 122.129 104.403 109.952C130.058 97.7755 156.341 94.9255 175.742 100.257L175.764 100.262L175.785 100.267C181.575 101.523 187.011 104.053 191.698 107.672C196.38 111.287 200.197 115.897 202.872 121.169C209.7 136.468 204.169 156.653 187.666 175.326C187.391 175.634 187.239 176.032 187.239 176.444C187.239 176.855 187.389 177.251 187.662 177.558C187.664 177.56 187.665 177.562 187.667 177.563L209.314 202.533L167.773 193.765C167.604 193.701 167.425 193.669 167.245 193.669C167.029 193.669 166.815 193.715 166.618 193.805L166.554 193.835L166.496 193.874C160.344 198.105 153.856 201.827 147.097 205.003L147.094 205.004C121.379 217.181 95.1541 220.088 75.7543 214.757L75.7324 214.751L75.7102 214.746C69.931 213.503 64.5014 210.991 59.815 207.392C55.1393 203.802 51.3202 199.219 48.6332 193.976C46.4519 188.385 45.5151 182.386 45.8881 176.396C46.262 170.393 47.9425 164.544 50.8125 159.256Z" stroke="#1A96F0" stroke-width="1.6165"/>
<path d="M87.2271 167.19C87.6521 167.059 88.107 167.059 88.532 167.19C88.9016 167.406 89.1853 167.743 89.3351 168.144C89.4652 168.535 89.4652 168.957 89.3351 169.348C89.2956 169.562 89.2129 169.766 89.0921 169.948C88.9713 170.129 88.8149 170.284 88.6324 170.402L90.8911 175.422C91.017 175.882 91.017 176.367 90.8911 176.827C90.8632 177.258 90.6857 177.667 90.3891 177.981C90.1369 178.286 89.778 178.484 89.3853 178.533C88.948 178.695 88.4674 178.695 88.0301 178.533C87.81 178.389 87.622 178.201 87.478 177.981C87.3425 177.792 87.2249 177.59 87.1266 177.379L84.9182 172.36L78.3932 175.321L80.6017 180.089C80.6301 180.306 80.6301 180.525 80.6017 180.742C80.6494 180.957 80.6494 181.18 80.6017 181.394C80.6014 181.63 80.5522 181.864 80.4572 182.08C80.3621 182.296 80.2234 182.49 80.0496 182.649C79.9161 182.799 79.7542 182.92 79.5732 183.007C79.3922 183.093 79.1958 183.142 78.9955 183.151C78.5591 183.153 78.1287 183.05 77.7407 182.85C77.3119 182.595 76.9773 182.207 76.7871 181.746L70.1617 167.341C70.0637 167.111 70.0132 166.863 70.0132 166.613C70.0132 166.363 70.0637 166.115 70.1617 165.885C70.267 165.447 70.493 165.047 70.8142 164.731C70.9646 164.568 71.147 164.438 71.35 164.349C71.553 164.261 71.7722 164.215 71.9937 164.215C72.2153 164.215 72.4345 164.261 72.6374 164.349C72.8404 164.438 73.0229 164.568 73.1732 164.731L73.4744 165.082V165.484L76.3855 171.808L82.8603 168.796L80.0997 162.823C79.9997 162.445 79.9997 162.047 80.0997 161.669C80.0898 161.209 80.2507 160.762 80.5515 160.414C80.8229 160.088 81.1928 159.859 81.6055 159.762C81.9976 159.638 82.418 159.638 82.8101 159.762C83.2455 159.961 83.5872 160.32 83.7638 160.765L87.2271 167.19ZM108.86 167.792C108.986 168.184 108.986 168.605 108.86 168.997C108.785 169.356 108.611 169.686 108.358 169.951C108.142 170.205 107.836 170.366 107.505 170.402C107.116 170.549 106.688 170.549 106.3 170.402C105.924 170.234 105.608 169.953 105.397 169.599C105.226 169.248 105.024 168.912 104.794 168.595C104.092 167.642 103.389 166.738 102.536 165.785L99.1226 167.391L95.7095 168.997V170.704C95.7095 171.306 95.7095 171.758 96.0608 172.31C96.0372 172.728 96.0372 173.147 96.0608 173.564C96.1863 173.99 96.1863 174.444 96.0608 174.869C95.9433 175.313 95.6777 175.702 95.308 175.974C94.9681 176.101 94.5938 176.101 94.2539 175.974C93.8838 175.92 93.5361 175.763 93.2501 175.522C92.8804 175.251 92.6147 174.861 92.4972 174.418C92.2937 173.813 92.1426 173.191 92.0455 172.561L91.7443 170.704C91.1365 167.137 90.8009 163.53 90.7405 159.912C90.6899 159.613 90.6899 159.308 90.7405 159.009V157.101C90.6887 156.769 90.6887 156.43 90.7405 156.098C90.787 155.765 90.8888 155.443 91.0416 155.144C91.2377 154.851 91.5176 154.623 91.8447 154.491C92.2793 154.316 92.7653 154.316 93.1999 154.491C95.0156 155.17 96.7103 156.136 98.2191 157.352C99.776 158.542 101.267 159.816 102.686 161.167L103.79 160.665C104.195 160.515 104.64 160.515 105.045 160.665C105.388 160.794 105.685 161.021 105.899 161.318C106.058 161.596 106.16 161.903 106.2 162.221C106.273 162.535 106.273 162.861 106.2 163.175C106.043 163.486 105.82 163.76 105.547 163.978L106.953 165.735C107.404 166.337 107.806 166.989 108.207 167.642L108.86 167.792ZM99.6747 162.773C98.9692 162.068 98.2144 161.414 97.416 160.816C96.6587 160.17 95.8533 159.583 95.0068 159.059V164.881L97.2655 163.777L99.6747 162.773ZM120.555 160.063C121.026 160.084 121.488 160.203 121.91 160.414C122.234 160.602 122.496 160.881 122.663 161.217C122.789 161.574 122.789 161.964 122.663 162.321C122.522 162.768 122.262 163.167 121.91 163.476C121.688 163.67 121.433 163.823 121.157 163.928L119.802 164.58L117.543 165.634L114.18 167.19L113.176 167.692C113.002 167.767 112.814 167.805 112.624 167.805C112.434 167.805 112.247 167.767 112.072 167.692C111.729 167.592 111.428 167.38 111.219 167.09C110.923 166.754 110.67 166.383 110.466 165.985C110.225 165.588 110.023 165.168 109.864 164.731L109.362 163.677L108.508 161.769L107.505 159.511C107.204 158.758 106.852 158.055 106.501 157.302L105.648 155.395C105.196 154.391 104.794 153.588 104.543 152.986C104.347 152.511 104.179 152.025 104.041 151.53C103.969 151.233 103.969 150.923 104.041 150.627C104.155 150.371 104.308 150.134 104.493 149.924C104.676 149.706 104.921 149.548 105.196 149.472H106.049C106.313 149.406 106.589 149.406 106.852 149.472C106.983 149.525 107.1 149.607 107.196 149.711C107.291 149.815 107.363 149.94 107.404 150.075C108.458 152.283 109.512 154.491 110.466 156.7C111.42 158.908 112.423 161.067 113.427 163.275L116.891 161.619L120.404 159.912L120.555 160.063ZM134.207 153.839C134.66 153.826 135.11 153.93 135.512 154.14C135.845 154.319 136.11 154.603 136.264 154.948C136.419 155.293 136.454 155.68 136.365 156.047C136.218 156.504 135.939 156.905 135.562 157.202C135.352 157.387 135.115 157.539 134.859 157.654L133.454 158.306L131.195 159.36L127.832 160.916C127.514 161.113 127.178 161.281 126.829 161.418C126.654 161.493 126.466 161.531 126.277 161.531C126.087 161.531 125.899 161.493 125.724 161.418C125.549 161.379 125.384 161.306 125.237 161.202C125.091 161.099 124.966 160.968 124.871 160.816C124.575 160.48 124.322 160.109 124.118 159.711L123.516 158.457C123.341 158.116 123.19 157.764 123.064 157.403C122.763 156.85 122.512 156.198 122.161 155.495L121.408 153.287C121.107 152.534 120.755 151.831 120.404 151.078L119.551 149.171C119.099 148.167 118.748 147.414 118.497 146.762C118.266 146.296 118.081 145.808 117.945 145.306C117.841 145.014 117.841 144.695 117.945 144.403C118.02 144.14 118.158 143.899 118.346 143.7C118.542 143.509 118.784 143.37 119.049 143.299C119.331 143.247 119.62 143.247 119.902 143.299C120.165 143.226 120.442 143.226 120.705 143.299C120.951 143.432 121.146 143.644 121.257 143.901C122.311 146.109 123.365 148.318 124.319 150.526C125.273 152.735 126.276 154.943 127.28 157.101L130.744 155.445L134.257 153.739L134.207 153.839ZM150.469 140.99C150.569 142.192 150.569 143.401 150.469 144.604C150.465 145.796 150.279 146.981 149.917 148.117C149.585 149.217 149.039 150.24 148.311 151.129C147.551 152.086 146.569 152.844 145.45 153.337L143.492 153.99C142.992 154.039 142.487 154.039 141.987 153.99C141.177 154.169 140.337 154.169 139.527 153.99C138.746 153.741 138.003 153.386 137.319 152.936C136.662 152.445 136.071 151.872 135.562 151.229C135.043 150.625 134.589 149.969 134.207 149.271C133.524 148.09 133.049 146.799 132.801 145.457C132.552 144.113 132.552 142.735 132.801 141.391C132.95 140.037 133.359 138.725 134.006 137.527C134.623 136.313 135.539 135.277 136.666 134.515C137.285 134.105 137.94 133.752 138.624 133.461C139.304 133.212 140.012 133.043 140.732 132.959H142.489L144.195 133.26C144.944 133.509 145.654 133.864 146.303 134.314C146.953 134.756 147.529 135.298 148.01 135.92C148.595 136.686 149.099 137.511 149.515 138.38C149.867 139.183 150.168 140.086 150.469 140.99ZM145.45 149.021C145.883 148.554 146.224 148.009 146.454 147.414C146.697 146.818 146.865 146.195 146.956 145.557C147.032 144.924 147.032 144.283 146.956 143.65V141.743C146.733 140.974 146.465 140.22 146.153 139.484C145.829 138.74 145.329 138.085 144.697 137.577C144.173 137.111 143.53 136.798 142.84 136.673C142.145 136.524 141.427 136.524 140.732 136.673C140.031 136.772 139.361 137.03 138.774 137.426C138.185 137.806 137.715 138.346 137.419 138.982C136.992 139.848 136.72 140.782 136.616 141.743C136.467 142.707 136.467 143.689 136.616 144.654C136.757 145.465 136.993 146.257 137.319 147.013C137.651 147.783 138.128 148.481 138.724 149.071C139.183 149.491 139.709 149.83 140.28 150.075C140.857 150.303 141.467 150.439 142.087 150.476C142.707 150.481 143.321 150.362 143.894 150.125C144.468 149.867 144.981 149.491 145.4 149.021H145.45ZM158.249 144.152C158.394 144.592 158.394 145.067 158.249 145.507C158.195 145.908 158.04 146.288 157.797 146.611C157.568 146.938 157.256 147.197 156.894 147.364C156.53 147.525 156.137 147.61 155.739 147.615C155.337 147.659 154.932 147.571 154.585 147.364C154.184 147.141 153.854 146.811 153.631 146.411C153.469 145.991 153.469 145.525 153.631 145.106C153.674 144.687 153.83 144.288 154.083 143.951C154.355 143.647 154.677 143.392 155.037 143.198C155.409 143.004 155.822 142.901 156.241 142.897C156.62 142.799 157.017 142.799 157.396 142.897C157.614 143.039 157.802 143.223 157.949 143.438C158.095 143.654 158.197 143.896 158.249 144.152ZM164.623 141.241C164.765 141.664 164.765 142.122 164.623 142.546C164.588 142.951 164.431 143.336 164.172 143.65C163.942 143.976 163.63 144.236 163.268 144.403C162.916 144.603 162.518 144.706 162.114 144.704C161.714 144.722 161.316 144.635 160.959 144.453C160.564 144.239 160.248 143.905 160.056 143.499C159.916 143.306 159.817 143.086 159.766 142.853C159.714 142.62 159.71 142.379 159.755 142.144C159.798 141.741 159.955 141.358 160.206 141.04C160.464 140.721 160.79 140.464 161.16 140.287C161.538 140.102 161.946 139.983 162.365 139.936C162.769 139.933 163.167 140.037 163.519 140.237C163.764 140.316 163.989 140.446 164.18 140.619C164.37 140.793 164.521 141.004 164.623 141.241ZM168.839 140.387C168.717 139.961 168.717 139.509 168.839 139.082C168.884 138.695 169.041 138.328 169.291 138.028C169.53 137.757 169.82 137.535 170.144 137.376C170.491 137.295 170.852 137.295 171.198 137.376C171.555 137.417 171.898 137.537 172.202 137.727C172.583 137.944 172.883 138.278 173.056 138.681C173.201 138.96 173.277 139.27 173.277 139.584C173.277 139.899 173.201 140.209 173.056 140.488C172.843 141.008 172.451 141.435 171.951 141.692C171.413 141.869 170.833 141.869 170.295 141.692C169.975 141.589 169.68 141.419 169.429 141.194C169.178 140.969 168.977 140.695 168.839 140.387ZM162.013 124.928C161.904 124.466 161.904 123.985 162.013 123.523C162.149 123.167 162.42 122.879 162.766 122.72C162.931 122.643 163.111 122.604 163.293 122.604C163.475 122.604 163.655 122.643 163.82 122.72C164.276 122.816 164.695 123.043 165.025 123.372C165.527 124.309 165.978 125.213 166.38 126.083C166.832 126.936 167.233 127.739 167.585 128.542C167.978 129.309 168.329 130.097 168.639 130.901L169.693 133.31C169.816 133.551 169.88 133.818 169.88 134.088C169.88 134.359 169.816 134.626 169.693 134.866C169.612 135.085 169.485 135.283 169.321 135.448C169.156 135.613 168.958 135.74 168.739 135.82C168.304 135.996 167.818 135.996 167.384 135.82C167.13 135.759 166.896 135.635 166.704 135.459C166.511 135.284 166.365 135.063 166.28 134.816L161.813 125.179L162.013 124.928ZM176.619 136.924C176.496 136.498 176.496 136.046 176.619 135.619C176.664 135.231 176.821 134.865 177.071 134.565C177.307 134.291 177.598 134.069 177.924 133.913C178.27 133.821 178.633 133.821 178.978 133.913C179.378 133.936 179.764 134.071 180.092 134.301C180.42 134.532 180.678 134.849 180.835 135.218C180.98 135.497 181.056 135.807 181.056 136.121C181.056 136.436 180.98 136.746 180.835 137.025C180.644 137.429 180.342 137.771 179.965 138.01C179.587 138.249 179.149 138.376 178.702 138.376C178.255 138.376 177.817 138.249 177.439 138.01C177.062 137.771 176.76 137.429 176.569 137.025L176.619 136.924ZM169.843 121.415C169.714 120.972 169.714 120.502 169.843 120.06C169.999 119.716 170.263 119.434 170.596 119.257C170.77 119.179 170.958 119.139 171.148 119.139C171.339 119.139 171.527 119.179 171.7 119.257C172.157 119.353 172.575 119.58 172.905 119.909C173.373 120.879 173.825 121.783 174.26 122.619C174.662 123.423 175.063 124.276 175.415 125.079C175.766 125.882 176.167 126.635 176.519 127.438L177.523 129.847C177.635 130.091 177.693 130.356 177.693 130.625C177.693 130.894 177.635 131.159 177.523 131.403C177.308 131.827 176.954 132.164 176.519 132.357C176.084 132.533 175.598 132.533 175.164 132.357C174.912 132.275 174.682 132.138 174.491 131.956C174.3 131.773 174.152 131.55 174.059 131.303L169.642 121.716L169.843 121.415Z" fill="white"/>
</g>
<g opacity="0.4">
<path fill-rule="evenodd" clip-rule="evenodd" d="M210.817 37.2744C208.886 32.3314 208.056 27.0267 208.386 21.7301C208.715 16.4336 210.196 11.2725 212.725 6.60699C220.304 -9.65525 237.068 -25.7669 259.353 -36.3574C281.639 -46.948 304.526 -49.4576 321.491 -44.7897C326.596 -43.6808 331.39 -41.4474 335.523 -38.2522C339.656 -35.057 343.024 -30.9803 345.383 -26.319C351.456 -12.717 346.487 5.05104 332.132 21.3133C332.008 21.4513 331.94 21.63 331.94 21.8152C331.94 22.0004 332.008 22.1791 332.132 22.3171L352.209 45.5059L314.213 37.4752C314.134 37.4391 314.049 37.4204 313.962 37.4204C313.876 37.4204 313.79 37.4391 313.711 37.4752C308.363 41.1578 302.723 44.3975 296.847 47.1622C274.511 57.7528 251.674 60.3126 234.709 55.6447C229.613 54.5467 224.826 52.3287 220.693 49.1513C216.561 45.974 213.188 41.9169 210.817 37.2744Z" fill="#1A96F0"/>
<path d="M202.812 7.25551L202.824 7.23397L202.835 7.21177C211.507 -11.3716 230.744 -29.8706 256.403 -42.0484C282.058 -54.2245 308.341 -57.0745 327.742 -51.7434L327.764 -51.7375L327.785 -51.7328C333.575 -50.4768 339.011 -47.9473 343.698 -44.3284C348.38 -40.7135 352.197 -36.1025 354.872 -30.8307C361.7 -15.5322 356.169 4.65327 339.666 23.326C339.391 23.6335 339.239 24.0316 339.239 24.4442C339.239 24.8547 339.389 25.2509 339.662 25.5579C339.664 25.5598 339.665 25.5616 339.667 25.5635L361.314 50.533L319.773 41.7646C319.604 41.7013 319.425 41.6689 319.245 41.6689C319.029 41.6689 318.815 41.7154 318.618 41.8055L318.554 41.8347L318.496 41.8744C312.344 46.105 305.856 49.8269 299.097 53.003L299.094 53.004C273.379 65.1812 247.154 68.088 227.754 62.7573L227.732 62.7513L227.71 62.7465C221.931 61.5029 216.501 58.9906 211.815 55.392C207.139 51.8015 203.32 47.2193 200.633 41.9764C198.452 36.3847 197.515 30.3858 197.888 24.3961C198.262 18.393 199.942 12.5435 202.812 7.25551Z" stroke="#1A96F0" stroke-width="1.6165"/>
<path d="M239.227 15.19C239.652 15.0586 240.107 15.0586 240.532 15.19C240.902 15.4059 241.185 15.7428 241.335 16.1437C241.465 16.5347 241.465 16.9573 241.335 17.3483C241.296 17.5625 241.213 17.7663 241.092 17.9475C240.971 18.1287 240.815 18.2835 240.632 18.4024L242.891 23.4216C243.017 23.8816 243.017 24.367 242.891 24.827C242.863 25.2585 242.686 25.6667 242.389 25.9814C242.137 26.2864 241.778 26.4838 241.385 26.5335C240.948 26.6948 240.467 26.6948 240.03 26.5335C239.81 26.3895 239.622 26.2015 239.478 25.9814C239.342 25.7919 239.225 25.5903 239.127 25.3791L236.918 20.3599L230.393 23.3212L232.602 28.0894C232.63 28.306 232.63 28.5254 232.602 28.7419C232.649 28.9568 232.649 29.1795 232.602 29.3944C232.601 29.6304 232.552 29.8637 232.457 30.0797C232.362 30.2957 232.223 30.4896 232.05 30.6492C231.916 30.7988 231.754 30.9203 231.573 31.0065C231.392 31.0927 231.196 31.1419 230.996 31.1511C230.559 31.1532 230.129 31.0499 229.741 30.85C229.312 30.5947 228.977 30.2072 228.787 29.7458L222.162 15.3407C222.064 15.1105 222.013 14.863 222.013 14.6128C222.013 14.3627 222.064 14.1152 222.162 13.8851C222.267 13.4468 222.493 13.0468 222.814 12.7306C222.965 12.5679 223.147 12.4381 223.35 12.3493C223.553 12.2605 223.772 12.2147 223.994 12.2147C224.215 12.2147 224.434 12.2605 224.637 12.3493C224.84 12.4381 225.023 12.5679 225.173 12.7306L225.474 13.082V13.4835L228.386 19.8077L234.86 16.7962L232.1 10.8234C232 10.445 232 10.0472 232.1 9.66892C232.09 9.20915 232.251 8.76202 232.551 8.41412C232.823 8.08817 233.193 7.8592 233.606 7.76163C233.998 7.63833 234.418 7.63833 234.81 7.76163C235.246 7.9608 235.587 8.32042 235.764 8.76546L239.227 15.19ZM260.86 15.7924C260.986 16.1839 260.986 16.6054 260.86 16.997C260.785 17.3555 260.611 17.686 260.358 17.9506C260.142 18.2047 259.836 18.3664 259.505 18.4024C259.116 18.5488 258.688 18.5488 258.3 18.4024C257.924 18.2339 257.608 17.9534 257.397 17.5993C257.226 17.2476 257.024 16.9116 256.794 16.5955C256.092 15.6418 255.389 14.7383 254.536 13.7847L251.123 15.3908L247.709 16.997V18.7035C247.709 19.3058 247.709 19.7575 248.061 20.3097C248.037 20.7276 248.037 21.1465 248.061 21.5645C248.186 21.9904 248.186 22.4435 248.061 22.8695C247.943 23.3127 247.678 23.7024 247.308 23.9737C246.968 24.1007 246.594 24.1007 246.254 23.9737C245.884 23.9196 245.536 23.7631 245.25 23.522C244.88 23.2507 244.615 22.861 244.497 22.4177C244.294 21.8128 244.143 21.1914 244.045 20.5606L243.744 18.7035C243.136 15.1371 242.801 11.5296 242.74 7.9122C242.69 7.61317 242.69 7.30777 242.74 7.00874V5.10146C242.689 4.76885 242.689 4.4302 242.74 4.09759C242.787 3.76514 242.889 3.44284 243.042 3.14397C243.238 2.85078 243.518 2.62339 243.845 2.49145C244.279 2.31563 244.765 2.31563 245.2 2.49145C247.016 3.16972 248.71 4.13572 250.219 5.35239C251.776 6.54226 253.267 7.81567 254.686 9.16701L255.79 8.66509C256.195 8.5152 256.64 8.5152 257.045 8.66509C257.388 8.79379 257.685 9.02077 257.899 9.31758C258.058 9.59569 258.16 9.90284 258.2 10.221C258.273 10.5347 258.273 10.861 258.2 11.1747C258.043 11.4865 257.82 11.7605 257.547 11.9778L258.953 13.7345C259.404 14.3368 259.806 14.9893 260.207 15.6418L260.86 15.7924ZM251.675 10.7732C250.969 10.0679 250.214 9.41376 249.416 8.81566C248.659 8.16984 247.853 7.58258 247.007 7.05894V12.8812L249.265 11.777L251.675 10.7732ZM272.555 8.06277C273.026 8.08352 273.488 8.20323 273.91 8.41412C274.234 8.60199 274.496 8.88134 274.663 9.21721C274.789 9.57445 274.789 9.9642 274.663 10.3214C274.522 10.7678 274.262 11.1671 273.91 11.4758C273.688 11.6704 273.433 11.8234 273.157 11.9276L271.802 12.5801L269.543 13.6341L266.18 15.19L265.176 15.692C265.002 15.7666 264.814 15.805 264.624 15.805C264.434 15.805 264.247 15.7666 264.072 15.692C263.729 15.5919 263.428 15.3799 263.219 15.0897C262.923 14.7544 262.67 14.3834 262.466 13.9854C262.225 13.5878 262.023 13.1676 261.864 12.7306L261.362 11.6766L260.508 9.76933L259.505 7.51066C259.204 6.75777 258.852 6.05511 258.501 5.30223L257.648 3.39491C257.196 2.39106 256.794 1.58801 256.543 0.985706C256.347 0.511028 256.179 0.0249519 256.041 -0.469872C255.969 -0.766678 255.969 -1.07652 256.041 -1.37333C256.155 -1.62912 256.308 -1.86606 256.493 -2.07602C256.676 -2.29433 256.921 -2.45189 257.196 -2.52777H258.049C258.313 -2.59364 258.589 -2.59364 258.852 -2.52777C258.983 -2.47455 259.1 -2.3929 259.196 -2.28874C259.291 -2.18457 259.363 -2.06047 259.404 -1.92545C260.458 0.283005 261.512 2.49146 262.466 4.69991C263.42 6.90836 264.423 9.06661 265.427 11.2751L268.891 9.61876L272.404 7.9122L272.555 8.06277ZM286.207 1.83896C286.66 1.82641 287.11 1.93007 287.512 2.1401C287.845 2.31853 288.11 2.60268 288.264 2.94791C288.419 3.29313 288.454 3.6799 288.365 4.04743C288.218 4.50354 287.939 4.90545 287.562 5.20182C287.352 5.38656 287.115 5.53884 286.859 5.65357L285.454 6.30606L283.195 7.36009L279.832 8.91603C279.514 9.11323 279.178 9.28125 278.829 9.41798C278.654 9.49254 278.466 9.53095 278.277 9.53095C278.087 9.53095 277.899 9.49254 277.724 9.41798C277.549 9.37902 277.384 9.3057 277.237 9.20231C277.091 9.09892 276.966 8.96751 276.871 8.81566C276.575 8.48037 276.322 8.10942 276.118 7.71143L275.516 6.45663C275.341 6.11614 275.19 5.76396 275.064 5.4026C274.763 4.85048 274.512 4.198 274.161 3.49531L273.408 1.28685C273.107 0.533962 272.755 -0.168739 272.404 -0.921619L271.551 -2.82891C271.099 -3.83275 270.748 -4.58565 270.497 -5.23814C270.266 -5.70431 270.081 -6.19176 269.945 -6.69368C269.841 -6.98597 269.841 -7.30485 269.945 -7.59714C270.02 -7.86018 270.158 -8.10122 270.346 -8.29987C270.542 -8.4915 270.784 -8.6297 271.049 -8.70137C271.331 -8.75324 271.62 -8.75324 271.902 -8.70137C272.165 -8.77407 272.442 -8.77407 272.705 -8.70137C272.951 -8.56783 273.146 -8.35583 273.257 -8.09909C274.311 -5.89064 275.365 -3.68219 276.319 -1.47374C277.273 0.734718 278.276 2.9432 279.28 5.10146L282.744 3.44511L286.257 1.73856L286.207 1.83896ZM302.469 -11.0102C302.569 -9.80767 302.569 -8.59894 302.469 -7.39641C302.465 -6.20396 302.279 -5.01909 301.917 -3.88294C301.585 -2.78323 301.039 -1.75986 300.311 -0.871416C299.551 0.0861092 298.569 0.844109 297.45 1.33705L295.492 1.98953C294.992 2.03886 294.487 2.03886 293.987 1.98953C293.177 2.16942 292.337 2.16942 291.527 1.98953C290.746 1.74114 290.003 1.38648 289.319 0.935501C288.662 0.445389 288.071 -0.128304 287.562 -0.771049C287.043 -1.37465 286.589 -2.0307 286.207 -2.72854C285.524 -3.91044 285.049 -5.20062 284.801 -6.54311C284.552 -7.88683 284.552 -9.26498 284.801 -10.6087C284.95 -11.9627 285.359 -13.2751 286.006 -14.4735C286.623 -15.6865 287.539 -16.7228 288.666 -17.485C289.285 -17.8954 289.94 -18.2483 290.624 -18.539C291.304 -18.7885 292.012 -18.957 292.732 -19.041H294.489L296.195 -18.7398C296.944 -18.4907 297.654 -18.1358 298.303 -17.6858C298.953 -17.2441 299.529 -16.7019 300.01 -16.0796C300.595 -15.3136 301.099 -14.4895 301.515 -13.6202C301.867 -12.8171 302.168 -11.9137 302.469 -11.0102ZM297.45 -2.97948C297.883 -3.4463 298.224 -3.99138 298.454 -4.58562C298.697 -5.18167 298.865 -5.80543 298.956 -6.44275C299.032 -7.07623 299.032 -7.71655 298.956 -8.35003V-10.2574C298.733 -11.0256 298.465 -11.7798 298.153 -12.516C297.829 -13.2601 297.329 -13.9145 296.697 -14.4233C296.173 -14.8895 295.53 -15.2021 294.84 -15.3267C294.145 -15.476 293.427 -15.476 292.732 -15.3267C292.031 -15.2275 291.361 -14.9701 290.774 -14.5739C290.185 -14.1936 289.715 -13.6541 289.419 -13.0179C288.992 -12.1519 288.72 -11.2175 288.616 -10.2574C288.467 -9.29269 288.467 -8.31087 288.616 -7.3462C288.757 -6.53512 288.993 -5.74337 289.319 -4.98717C289.651 -4.21729 290.128 -3.51858 290.724 -2.92927C291.183 -2.50945 291.709 -2.17008 292.28 -1.92545C292.857 -1.69692 293.467 -1.56138 294.087 -1.5239C294.707 -1.51856 295.321 -1.63805 295.894 -1.87524C296.468 -2.13314 296.981 -2.50944 297.4 -2.97948H297.45ZM310.249 -7.84812C310.394 -7.4081 310.394 -6.93296 310.249 -6.49295C310.195 -6.09225 310.04 -5.71201 309.797 -5.38871C309.568 -5.06238 309.256 -4.8026 308.894 -4.63583C308.53 -4.47548 308.137 -4.39012 307.739 -4.38485C307.337 -4.34061 306.932 -4.42874 306.585 -4.63583C306.184 -4.85864 305.854 -5.18895 305.631 -5.58949C305.469 -6.0093 305.469 -6.47465 305.631 -6.89445C305.674 -7.31325 305.83 -7.71246 306.083 -8.04889C306.355 -8.35333 306.677 -8.60811 307.037 -8.80178C307.409 -8.99578 307.822 -9.09896 308.241 -9.10292C308.62 -9.20067 309.017 -9.20067 309.396 -9.10292C309.614 -8.96108 309.802 -8.77703 309.949 -8.56156C310.095 -8.34609 310.197 -8.10353 310.249 -7.84812ZM316.623 -10.7593C316.765 -10.3358 316.765 -9.87774 316.623 -9.45426C316.588 -9.04892 316.431 -8.66383 316.172 -8.35003C315.942 -8.02369 315.63 -7.76392 315.268 -7.59714C314.916 -7.39735 314.518 -7.29351 314.114 -7.296C313.714 -7.27812 313.316 -7.36462 312.959 -7.54698C312.564 -7.76052 312.248 -8.0946 312.056 -8.5006C311.916 -8.69418 311.817 -8.91419 311.766 -9.14719C311.714 -9.38019 311.71 -9.62131 311.755 -9.85581C311.798 -10.259 311.955 -10.6417 312.206 -10.96C312.464 -11.2787 312.79 -11.5359 313.16 -11.7129C313.538 -11.8984 313.946 -12.0173 314.365 -12.0643C314.769 -12.0668 315.167 -11.9629 315.519 -11.7631C315.764 -11.6841 315.989 -11.5536 316.18 -11.3805C316.37 -11.2074 316.521 -10.9956 316.623 -10.7593ZM320.839 -11.6125C320.717 -12.0389 320.717 -12.4912 320.839 -12.9175C320.884 -13.3053 321.041 -13.6716 321.291 -13.9716C321.53 -14.2428 321.82 -14.4645 322.144 -14.624C322.491 -14.7053 322.852 -14.7053 323.198 -14.624C323.555 -14.5832 323.898 -14.4631 324.202 -14.2727C324.583 -14.0564 324.883 -13.7215 325.056 -13.3191C325.201 -13.0401 325.277 -12.7301 325.277 -12.4156C325.277 -12.1011 325.201 -11.7912 325.056 -11.5122C324.843 -10.9919 324.451 -10.5647 323.951 -10.3075C323.413 -10.1313 322.833 -10.1313 322.295 -10.3075C321.975 -10.4112 321.68 -10.581 321.429 -10.8058C321.178 -11.0305 320.977 -11.3054 320.839 -11.6125ZM314.013 -27.0717C313.904 -27.5338 313.904 -28.015 314.013 -28.4771C314.149 -28.833 314.42 -29.1213 314.766 -29.2801C314.931 -29.3566 315.111 -29.3962 315.293 -29.3962C315.475 -29.3962 315.655 -29.3566 315.82 -29.2801C316.276 -29.1838 316.695 -28.9571 317.025 -28.6276C317.527 -27.6907 317.978 -26.7873 318.38 -25.9173C318.832 -25.064 319.233 -24.2609 319.585 -23.4579C319.978 -22.6908 320.329 -21.9033 320.639 -21.0988L321.693 -18.6896C321.816 -18.4488 321.88 -18.1822 321.88 -17.9116C321.88 -17.6411 321.816 -17.3744 321.693 -17.1337C321.612 -16.9151 321.485 -16.7166 321.321 -16.5519C321.156 -16.3872 320.958 -16.2603 320.739 -16.18C320.304 -16.0042 319.818 -16.0042 319.384 -16.18C319.13 -16.2414 318.896 -16.3655 318.704 -16.5409C318.511 -16.7163 318.365 -16.9374 318.28 -17.1839L313.813 -26.8207L314.013 -27.0717ZM328.619 -15.0758C328.496 -15.5021 328.496 -15.9544 328.619 -16.3808C328.664 -16.7686 328.821 -17.1349 329.071 -17.4348C329.307 -17.7091 329.598 -17.9313 329.924 -18.0873C330.27 -18.1788 330.633 -18.1788 330.978 -18.0873C331.378 -18.0637 331.764 -17.9292 332.092 -17.6987C332.42 -17.4682 332.678 -17.1508 332.835 -16.7823C332.98 -16.5033 333.056 -16.1934 333.056 -15.8788C333.056 -15.5643 332.98 -15.2544 332.835 -14.9754C332.644 -14.5711 332.342 -14.2294 331.965 -13.9901C331.587 -13.7507 331.149 -13.6237 330.702 -13.6237C330.255 -13.6237 329.817 -13.7507 329.439 -13.9901C329.062 -14.2294 328.76 -14.5711 328.569 -14.9754L328.619 -15.0758ZM321.843 -30.5851C321.714 -31.0276 321.714 -31.4979 321.843 -31.9403C321.999 -32.2839 322.263 -32.5662 322.596 -32.7434C322.77 -32.8209 322.958 -32.861 323.148 -32.861C323.339 -32.861 323.527 -32.8209 323.7 -32.7434C324.157 -32.6471 324.575 -32.4204 324.905 -32.0909C325.373 -31.1205 325.825 -30.2171 326.26 -29.3805C326.662 -28.5775 327.063 -27.7242 327.415 -26.9211C327.766 -26.1181 328.167 -25.3652 328.519 -24.5621L329.523 -22.1529C329.635 -21.9089 329.693 -21.6435 329.693 -21.3749C329.693 -21.1063 329.635 -20.8408 329.523 -20.5969C329.308 -20.1726 328.954 -19.8356 328.519 -19.6433C328.084 -19.4674 327.598 -19.4674 327.164 -19.6433C326.912 -19.7246 326.682 -19.8616 326.491 -20.0441C326.3 -20.2266 326.152 -20.4498 326.059 -20.6973L321.642 -30.284L321.843 -30.5851Z" fill="white"/>
</g>
<g opacity="0.4">
<path fill-rule="evenodd" clip-rule="evenodd" d="M-93.1825 61.2744C-95.1138 56.3314 -95.9436 51.0267 -95.6142 45.7301C-95.2848 40.4336 -93.804 35.2725 -91.2752 30.607C-83.6962 14.3447 -66.9321 -1.76691 -44.6468 -12.3574C-22.3615 -22.948 0.526184 -25.4576 17.4911 -20.7897C22.5961 -19.6808 27.3896 -17.4474 31.5226 -14.2522C35.6555 -11.057 39.0239 -6.98031 41.3825 -2.31902C47.4558 11.283 42.4868 29.051 28.1318 45.3133C28.0084 45.4513 27.9401 45.63 27.9401 45.8152C27.9401 46.0004 28.0084 46.1791 28.1318 46.3171L48.2087 69.5059L10.2132 61.4752C10.1345 61.4391 10.0489 61.4204 9.9623 61.4204C9.87568 61.4204 9.79006 61.4391 9.71133 61.4752C4.3628 65.1578 -1.27745 68.3975 -7.15323 71.1622C-29.4887 81.7528 -52.3261 84.3126 -69.2911 79.6447C-74.3867 78.5467 -79.1742 76.3287 -83.3065 73.1513C-87.4388 69.974 -90.8123 65.9169 -93.1825 61.2744Z" fill="#1A96F0"/>
<path d="M-101.188 31.2555L-101.176 31.234L-101.165 31.2118C-92.4932 12.6284 -73.2565 -5.87064 -47.5972 -18.0484C-21.9415 -30.2245 4.34109 -33.0745 23.7423 -27.7434L23.7636 -27.7375L23.7851 -27.7328C29.5749 -26.4768 35.0112 -23.9473 39.6984 -20.3284C44.3804 -16.7135 48.1971 -12.1025 50.8716 -6.83067C57.7 8.46785 52.1692 28.6533 35.6659 47.326C35.3909 47.6335 35.2388 48.0316 35.2388 48.4442C35.2388 48.8547 35.3894 49.2509 35.6619 49.5579C35.6636 49.5598 35.6652 49.5616 35.6669 49.5635L57.3141 74.533L15.7731 65.7646C15.6044 65.7013 15.4255 65.6689 15.2448 65.6689C15.0287 65.6689 14.8148 65.7154 14.618 65.8055L14.5542 65.8347L14.4965 65.8744C8.34389 70.105 1.85569 73.8269 -4.90343 77.003L-4.9056 77.004C-30.6215 89.1812 -56.8459 92.088 -76.2457 86.7573L-76.2676 86.7513L-76.2898 86.7465C-82.069 85.5029 -87.4986 82.9906 -92.185 79.392C-96.8607 75.8015 -100.68 71.2193 -103.367 65.9764C-105.548 60.3847 -106.485 54.3858 -106.112 48.3961C-105.738 42.393 -104.058 36.5435 -101.188 31.2555Z" stroke="#1A96F0" stroke-width="1.6165"/>
<path d="M-64.7729 39.19C-64.3479 39.0586 -63.893 39.0586 -63.468 39.19C-63.0984 39.4059 -62.8147 39.7428 -62.6649 40.1437C-62.5348 40.5347 -62.5348 40.9573 -62.6649 41.3483C-62.7044 41.5625 -62.7871 41.7663 -62.9079 41.9475C-63.0287 42.1287 -63.1851 42.2835 -63.3676 42.4024L-61.1089 47.4216C-60.983 47.8816 -60.983 48.367 -61.1089 48.827C-61.1368 49.2585 -61.3143 49.6667 -61.6109 49.9814C-61.8631 50.2864 -62.222 50.4838 -62.6147 50.5335C-63.052 50.6948 -63.5326 50.6948 -63.9699 50.5335C-64.19 50.3895 -64.378 50.2015 -64.522 49.9814C-64.6575 49.7919 -64.7751 49.5903 -64.8734 49.3791L-67.0818 44.3599L-73.6068 47.3212L-71.3983 52.0894C-71.3699 52.306 -71.3699 52.5254 -71.3983 52.7419C-71.3506 52.9568 -71.3506 53.1795 -71.3983 53.3944C-71.3986 53.6304 -71.4478 53.8637 -71.5428 54.0797C-71.6379 54.2957 -71.7766 54.4896 -71.9504 54.6492C-72.0839 54.7988 -72.2458 54.9203 -72.4268 55.0065C-72.6078 55.0927 -72.8042 55.1419 -73.0045 55.1511C-73.4409 55.1532 -73.8713 55.0499 -74.2593 54.85C-74.6881 54.5947 -75.0227 54.2072 -75.2129 53.7458L-81.8383 39.3407C-81.9363 39.1105 -81.9868 38.863 -81.9868 38.6128C-81.9868 38.3627 -81.9363 38.1152 -81.8383 37.8851C-81.733 37.4468 -81.507 37.0468 -81.1858 36.7306C-81.0354 36.5679 -80.853 36.4381 -80.65 36.3493C-80.447 36.2605 -80.2278 36.2147 -80.0063 36.2147C-79.7847 36.2147 -79.5655 36.2605 -79.3626 36.3493C-79.1596 36.4381 -78.9771 36.5679 -78.8268 36.7306L-78.5256 37.082V37.4835L-75.6145 43.8077L-69.1397 40.7962L-71.9003 34.8234C-72.0003 34.445 -72.0003 34.0472 -71.9003 33.6689C-71.9102 33.2091 -71.7493 32.762 -71.4485 32.4141C-71.1771 32.0882 -70.8072 31.8592 -70.3945 31.7616C-70.0024 31.6383 -69.582 31.6383 -69.1899 31.7616C-68.7545 31.9608 -68.4128 32.3204 -68.2362 32.7655L-64.7729 39.19ZM-43.1402 39.7924C-43.0135 40.1839 -43.0135 40.6054 -43.1402 40.997C-43.2149 41.3555 -43.3888 41.686 -43.6421 41.9506C-43.8583 42.2047 -44.1636 42.3664 -44.4953 42.4024C-44.8835 42.5488 -45.3118 42.5488 -45.7 42.4024C-46.0765 42.2339 -46.3919 41.9534 -46.6034 41.5993C-46.7742 41.2476 -46.9757 40.9116 -47.2057 40.5955C-47.9084 39.6418 -48.6111 38.7383 -49.4644 37.7847L-52.8774 39.3908L-56.2905 40.997V42.7035C-56.2905 43.3058 -56.2905 43.7575 -55.9392 44.3097C-55.9628 44.7276 -55.9628 45.1465 -55.9392 45.5645C-55.8137 45.9904 -55.8137 46.4435 -55.9392 46.8695C-56.0567 47.3127 -56.3223 47.7024 -56.692 47.9737C-57.0319 48.1007 -57.4062 48.1007 -57.7461 47.9737C-58.1162 47.9196 -58.4639 47.7631 -58.7499 47.522C-59.1196 47.2507 -59.3853 46.861 -59.5028 46.4177C-59.7063 45.8128 -59.8574 45.1914 -59.9545 44.5606L-60.2557 42.7035C-60.8635 39.1371 -61.1991 35.5296 -61.2595 31.9122C-61.3101 31.6132 -61.3101 31.3078 -61.2595 31.0087V29.1015C-61.3113 28.7688 -61.3113 28.4302 -61.2595 28.0976C-61.213 27.7651 -61.1112 27.4428 -60.9584 27.144C-60.7623 26.8508 -60.4824 26.6234 -60.1553 26.4914C-59.7207 26.3156 -59.2347 26.3156 -58.8001 26.4914C-56.9844 27.1697 -55.2897 28.1357 -53.7809 29.3524C-52.224 30.5423 -50.7328 31.8157 -49.3138 33.167L-48.2096 32.6651C-47.8047 32.5152 -47.3596 32.5152 -46.9548 32.6651C-46.6123 32.7938 -46.3154 33.0208 -46.1015 33.3176C-45.942 33.5957 -45.8396 33.9028 -45.8003 34.221C-45.7275 34.5347 -45.7275 34.861 -45.8003 35.1747C-45.9571 35.4865 -46.1798 35.7605 -46.4529 35.9778L-45.0474 37.7345C-44.5957 38.3368 -44.1942 38.9893 -43.7926 39.6418L-43.1402 39.7924ZM-52.3253 34.7732C-53.0308 34.0679 -53.7856 33.4138 -54.584 32.8157C-55.3413 32.1698 -56.1467 31.5826 -56.9932 31.0589V36.8812L-54.7345 35.777L-52.3253 34.7732ZM-31.4454 32.0628C-30.974 32.0835 -30.5123 32.2032 -30.0902 32.4141C-29.7658 32.602 -29.5039 32.8813 -29.3373 33.2172C-29.211 33.5744 -29.211 33.9642 -29.3373 34.3214C-29.478 34.7678 -29.7384 35.1671 -30.0902 35.4758C-30.3121 35.6704 -30.5671 35.8234 -30.8431 35.9276L-32.1983 36.5801L-34.4569 37.6341L-37.8198 39.19L-38.8236 39.692C-38.9982 39.7666 -39.186 39.805 -39.3758 39.805C-39.5655 39.805 -39.7533 39.7666 -39.9279 39.692C-40.2715 39.5919 -40.5717 39.3799 -40.7811 39.0897C-41.0771 38.7544 -41.33 38.3834 -41.534 37.9854C-41.7752 37.5878 -41.977 37.1676 -42.1363 36.7306L-42.6382 35.6766L-43.4915 33.7693L-44.4953 31.5107C-44.7965 30.7578 -45.1479 30.0551 -45.4992 29.3022L-46.3525 27.3949C-46.8042 26.3911 -47.2057 25.588 -47.4567 24.9857C-47.6531 24.511 -47.8207 24.025 -47.9586 23.5301C-48.031 23.2333 -48.031 22.9235 -47.9586 22.6267C-47.8445 22.3709 -47.6922 22.1339 -47.5069 21.924C-47.3239 21.7057 -47.0788 21.5481 -46.8042 21.4722H-45.9509C-45.6873 21.4064 -45.4115 21.4064 -45.1479 21.4722C-45.0169 21.5255 -44.8995 21.6071 -44.804 21.7113C-44.7085 21.8154 -44.6374 21.9395 -44.5957 22.0746C-43.5417 24.283 -42.4877 26.4915 -41.534 28.6999C-40.5804 30.9084 -39.5765 33.0666 -38.5727 35.2751L-35.1094 33.6188L-31.596 31.9122L-31.4454 32.0628ZM-17.7931 25.839C-17.3396 25.8264 -16.8904 25.9301 -16.4882 26.1401C-16.1547 26.3185 -15.8899 26.6027 -15.7355 26.9479C-15.5811 27.2931 -15.5456 27.6799 -15.6349 28.0474C-15.7818 28.5035 -16.0614 28.9054 -16.438 29.2018C-16.6484 29.3866 -16.8852 29.5388 -17.1406 29.6536L-18.546 30.3061L-20.8047 31.3601L-24.1675 32.916C-24.4864 33.1132 -24.8223 33.2812 -25.1714 33.418C-25.3459 33.4925 -25.5337 33.5309 -25.7235 33.5309C-25.9133 33.5309 -26.1011 33.4925 -26.2756 33.418C-26.4506 33.379 -26.6161 33.3057 -26.7626 33.2023C-26.9091 33.0989 -27.0336 32.9675 -27.1289 32.8157C-27.4248 32.4804 -27.6777 32.1094 -27.8818 31.7114L-28.4841 30.4566C-28.6588 30.1161 -28.8097 29.764 -28.9358 29.4026C-29.2369 28.8505 -29.4879 28.198 -29.8392 27.4953L-30.5921 25.2868C-30.8933 24.534 -31.2446 23.8313 -31.596 23.0784L-32.4493 21.1711C-32.901 20.1673 -33.2523 19.4144 -33.5033 18.7619C-33.734 18.2957 -33.9189 17.8082 -34.0554 17.3063C-34.1587 17.014 -34.1587 16.6951 -34.0554 16.4029C-33.9798 16.1398 -33.8421 15.8988 -33.6539 15.7001C-33.4577 15.5085 -33.2158 15.3703 -32.9512 15.2986C-32.6691 15.2468 -32.38 15.2468 -32.0979 15.2986C-31.8352 15.2259 -31.5576 15.2259 -31.2948 15.2986C-31.0487 15.4322 -30.8544 15.6442 -30.7427 15.9009C-29.6887 18.1094 -28.6346 20.3178 -27.681 22.5263C-26.7273 24.7347 -25.7235 26.9432 -24.7197 29.1015L-21.2564 27.4451L-17.743 25.7386L-17.7931 25.839ZM-1.53089 12.9898C-1.4308 14.1923 -1.4308 15.4011 -1.53089 16.6036C-1.53473 17.796 -1.72092 18.9809 -2.08301 20.1171C-2.41512 21.2168 -2.96092 22.2401 -3.68916 23.1286C-4.44935 24.0861 -5.43129 24.8441 -6.55011 25.337L-8.5076 25.9895C-9.00831 26.0389 -9.51266 26.0389 -10.0134 25.9895C-10.8233 26.1694 -11.6628 26.1694 -12.4728 25.9895C-13.2538 25.7411 -13.9969 25.3865 -14.6812 24.9355C-15.3385 24.4454 -15.929 23.8717 -16.438 23.229C-16.9565 22.6253 -17.4107 21.9693 -17.7931 21.2715C-18.4761 20.0896 -18.9515 18.7994 -19.1985 17.4569C-19.4479 16.1132 -19.4479 14.735 -19.1985 13.3913C-19.0505 12.0373 -18.6414 10.7249 -17.9939 9.52653C-17.3767 8.31348 -16.4613 7.27721 -15.3337 6.51501C-14.7148 6.10456 -14.0596 5.75174 -13.3762 5.46098C-12.6957 5.21152 -11.9881 5.04303 -11.2682 4.95902H-9.51146L-7.80491 5.2602C-7.05556 5.50925 -6.3457 5.86418 -5.69685 6.31423C-5.04661 6.75595 -4.47057 7.29807 -3.9903 7.92038C-3.40537 8.68638 -2.90082 9.51052 -2.48456 10.3798C-2.13321 11.1829 -1.83205 12.0863 -1.53089 12.9898ZM-6.55011 21.0205C-6.11659 20.5537 -5.77593 20.0086 -5.54628 19.4144C-5.30328 18.8183 -5.1347 18.1946 -5.04436 17.5573C-4.96812 16.9238 -4.96812 16.2834 -5.04436 15.65V13.7426C-5.26683 12.9744 -5.53498 12.2202 -5.84742 11.484C-6.17129 10.7399 -6.67075 10.0855 -7.30299 9.57673C-7.82719 9.11054 -8.46979 8.79793 -9.16012 8.67327C-9.85488 8.52404 -10.5734 8.52404 -11.2682 8.67327C-11.9693 8.7725 -12.6387 9.02993 -13.2257 9.42612C-13.8153 9.80637 -14.2851 10.3459 -14.5808 10.9821C-15.0084 11.8481 -15.2803 12.7825 -15.3839 13.7426C-15.5329 14.7073 -15.5329 15.6891 -15.3839 16.6538C-15.2426 17.4649 -15.0068 18.2566 -14.6812 19.0128C-14.3493 19.7827 -13.8722 20.4814 -13.2759 21.0707C-12.8174 21.4905 -12.2914 21.8299 -11.7199 22.0746C-11.1426 22.3031 -10.5327 22.4386 -9.91297 22.4761C-9.29319 22.4814 -8.67867 22.3619 -8.10605 22.1248C-7.53194 21.8669 -7.01884 21.4906 -6.60031 21.0205H-6.55011ZM6.24886 16.1519C6.39436 16.5919 6.39436 17.067 6.24886 17.5071C6.19538 17.9078 6.03985 18.288 5.79715 18.6113C5.56776 18.9376 5.25604 19.1974 4.89369 19.3642C4.52965 19.5245 4.13701 19.6099 3.73925 19.6152C3.33739 19.6594 2.93209 19.5713 2.58485 19.3642C2.18432 19.1414 1.854 18.811 1.6312 18.4105C1.46863 17.9907 1.46863 17.5254 1.6312 17.1055C1.67372 16.6868 1.82995 16.2875 2.08295 15.9511C2.35469 15.6467 2.67738 15.3919 3.03657 15.1982C3.40873 15.0042 3.82153 14.901 4.2412 14.8971C4.6198 14.7993 5.01701 14.7993 5.3956 14.8971C5.61418 15.0389 5.80227 15.223 5.94879 15.4384C6.09531 15.6539 6.19731 15.8965 6.24886 16.1519ZM12.6233 13.2407C12.7649 13.6642 12.7649 14.1223 12.6233 14.5457C12.5881 14.9511 12.4305 15.3362 12.1715 15.65C11.9421 15.9763 11.6304 16.2361 11.2681 16.4029C10.9163 16.6026 10.5182 16.7065 10.1137 16.704C9.71362 16.7219 9.31577 16.6354 8.95924 16.453C8.5642 16.2395 8.24767 15.9054 8.05578 15.4994C7.91615 15.3058 7.81744 15.0858 7.76566 14.8528C7.71389 14.6198 7.71014 14.3787 7.75464 14.1442C7.79847 13.741 7.95505 13.3583 8.20639 13.04C8.46441 12.7213 8.79016 12.4641 9.16001 12.2871C9.53836 12.1016 9.9459 11.9827 10.3646 11.9357C10.7692 11.9332 11.1673 12.0371 11.519 12.2369C11.764 12.3159 11.9892 12.4464 12.1796 12.6195C12.3701 12.7926 12.5213 13.0044 12.6233 13.2407ZM16.8394 12.3875C16.7167 11.9611 16.7167 11.5088 16.8394 11.0825C16.8843 10.6947 17.0413 10.3284 17.2911 10.0284C17.5301 9.75717 17.82 9.53549 18.1444 9.37596C18.4911 9.29468 18.8518 9.29468 19.1984 9.37596C19.555 9.41683 19.898 9.53687 20.2023 9.7273C20.5831 9.9436 20.8828 10.2785 21.0556 10.6809C21.2007 10.9599 21.2765 11.2699 21.2765 11.5844C21.2765 11.8989 21.2007 12.2088 21.0556 12.4878C20.8428 13.0081 20.4512 13.4353 19.9513 13.6925C19.4133 13.8687 18.833 13.8687 18.295 13.6925C17.9746 13.5888 17.6796 13.419 17.4289 13.1942C17.1782 12.9695 16.9774 12.6946 16.8394 12.3875ZM10.0133 -3.07171C9.9043 -3.53383 9.9043 -4.01496 10.0133 -4.47708C10.1494 -4.833 10.4197 -5.12132 10.7662 -5.28013C10.9313 -5.35658 11.1112 -5.3962 11.2932 -5.3962C11.4752 -5.3962 11.655 -5.35658 11.8202 -5.28013C12.2764 -5.18379 12.6949 -4.95714 13.0248 -4.62765C13.5267 -3.69073 13.9785 -2.78727 14.38 -1.91727C14.8317 -1.064 15.2333 -0.260942 15.5846 0.542132C15.9775 1.30922 16.3294 2.09668 16.6387 2.90117L17.6927 5.31037C17.816 5.55115 17.8803 5.81784 17.8803 6.08838C17.8803 6.35891 17.816 6.62556 17.6927 6.86635C17.6124 7.08494 17.4855 7.28343 17.3208 7.4481C17.1561 7.61278 16.9576 7.73965 16.739 7.81997C16.3044 7.99579 15.8185 7.99579 15.3839 7.81997C15.1304 7.75858 14.8965 7.6345 14.7035 7.4591C14.5106 7.28369 14.3648 7.0626 14.2796 6.81615L9.81253 -2.82073L10.0133 -3.07171ZM24.6192 8.92421C24.4965 8.49786 24.4965 8.04558 24.6192 7.61924C24.6641 7.23145 24.8211 6.86513 25.0709 6.56517C25.307 6.29086 25.5976 6.06867 25.9242 5.91269C26.2695 5.82118 26.6328 5.82118 26.9782 5.91269C27.3784 5.93626 27.7642 6.07083 28.0922 6.30133C28.4202 6.53183 28.6775 6.84915 28.8353 7.21769C28.9805 7.49672 29.0563 7.80662 29.0563 8.12115C29.0563 8.43568 28.9805 8.74558 28.8353 9.02461C28.6444 9.42892 28.3425 9.77062 27.9648 10.0099C27.5872 10.2493 27.1492 10.3763 26.7021 10.3763C26.255 10.3763 25.8171 10.2493 25.4394 10.0099C25.0618 9.77062 24.7599 9.42892 24.569 9.02461L24.6192 8.92421ZM17.8433 -6.58514C17.7136 -7.02756 17.7136 -7.49792 17.8433 -7.94035C17.9986 -8.28385 18.2634 -8.56622 18.5962 -8.7434C18.7699 -8.82091 18.958 -8.86096 19.1483 -8.86096C19.3385 -8.86096 19.5266 -8.82091 19.7003 -8.7434C20.1566 -8.64705 20.5751 -8.4204 20.905 -8.09092C21.3734 -7.12054 21.8252 -6.21707 22.2602 -5.38054C22.6617 -4.57746 23.0632 -3.72421 23.4146 -2.92114C23.7659 -2.11806 24.1675 -1.36517 24.5188 -0.5621L25.5226 1.84714C25.6351 2.09106 25.6935 2.35648 25.6935 2.62511C25.6935 2.89374 25.6351 3.15916 25.5226 3.40308C25.3082 3.82737 24.9535 4.16435 24.5188 4.35674C24.0842 4.53256 23.5982 4.53256 23.1636 4.35674C22.9121 4.27544 22.6822 4.13842 22.491 3.95592C22.2998 3.77343 22.1523 3.55015 22.0594 3.30271L17.6425 -6.284L17.8433 -6.58514Z" fill="white"/>
</g>
</svg>
