<svg width="488" height="347" viewBox="0 0 488 347" fill="none" xmlns="http://www.w3.org/2000/svg">
<rect width="488" height="263" fill="#FCE9D2"/>
<rect width="488" height="347" fill="#FCE9D2"/>
<g opacity="0.4">
<path d="M490.681 143.429L486.375 136.361C485.638 135.152 485.316 133.053 485.643 131.707L487.605 123.625C488.404 120.333 486.364 116.985 483.072 116.186L475.028 114.233C473.681 113.906 471.964 112.657 471.227 111.448L466.921 104.381C465.165 101.498 461.349 100.571 458.466 102.328L451.324 106.616C450.152 107.362 448.053 107.684 446.669 107.348L438.625 105.395C435.333 104.596 431.985 106.636 431.186 109.928L429.233 117.972C428.906 119.319 427.657 121.036 426.448 121.773L419.381 126.079C416.498 127.835 415.571 131.651 417.328 134.534L421.634 141.602C422.371 142.81 422.693 144.909 422.366 146.256L420.413 154.3C419.614 157.592 421.654 160.94 424.946 161.739L432.99 163.692C434.337 164.019 436.054 165.268 436.791 166.477L441.097 173.545C442.853 176.427 446.669 177.354 449.552 175.597L456.62 171.291C457.829 170.555 459.927 170.232 461.274 170.559L469.318 172.512C472.61 173.311 475.958 171.271 476.758 167.979L478.71 159.935C479.037 158.588 480.286 156.871 481.495 156.135L488.563 151.828C491.549 150.137 492.475 146.32 490.681 143.429ZM441.76 124.143C442.259 122.085 444.352 120.81 446.409 121.31C448.467 121.809 449.742 123.902 449.242 125.959C448.743 128.017 446.688 129.301 444.593 128.792C442.535 128.293 441.26 126.201 441.76 124.143ZM441.553 149.963C440.855 150.388 440.081 150.478 439.37 150.305C438.659 150.132 438.012 149.698 437.587 149.001C436.765 147.652 437.201 145.856 438.55 145.035L466.447 128.037C467.796 127.215 469.592 127.651 470.413 129C471.235 130.348 470.799 132.144 469.45 132.965L441.553 149.963ZM461.591 156.69C459.496 156.182 458.221 154.089 458.72 152.032C459.22 149.974 461.312 148.699 463.37 149.199C465.428 149.698 466.703 151.79 466.203 153.848C465.703 155.906 463.648 157.19 461.591 156.69Z" fill="#FF981F"/>
<path d="M400.019 143.461L392.842 131.682C389.915 126.878 391.459 120.517 396.263 117.59L408.042 110.413C410.057 109.185 412.139 106.323 412.684 104.078L415.939 90.6715C417.271 85.1843 422.85 81.7848 428.338 83.117L441.744 86.3718C443.989 86.9168 447.487 86.3795 449.502 85.1519L461.281 77.9748C466.085 75.0474 472.446 76.5915 475.373 81.3961L482.55 93.1753C483.778 95.1902 486.64 97.2715 488.885 97.8165L502.291 101.071C507.778 102.403 511.178 107.983 509.846 113.47L506.591 126.877C506.046 129.121 506.583 132.62 507.811 134.634L514.988 146.414C517.915 151.218 516.371 157.578 511.567 160.506L499.787 167.683C497.773 168.911 495.691 171.773 495.146 174.018L491.891 187.423C490.559 192.911 484.98 196.311 479.492 194.979L466.086 191.724C463.841 191.179 460.343 191.716 458.328 192.944L446.549 200.121C441.745 203.048 435.384 201.504 432.457 196.7L425.28 184.92C424.052 182.906 421.19 180.824 418.945 180.279L405.539 177.024C400.052 175.692 396.652 170.112 397.984 164.625L401.239 151.219C401.799 148.912 401.262 145.414 400.019 143.461Z" stroke="#FF981F" stroke-width="2" stroke-linecap="round" stroke-linejoin="round"/>
</g>
<g opacity="0.4">
<path d="M234.681 183.429L230.375 176.361C229.638 175.152 229.316 173.053 229.643 171.707L231.605 163.625C232.404 160.333 230.364 156.985 227.072 156.186L219.028 154.233C217.681 153.906 215.964 152.657 215.227 151.448L210.921 144.381C209.165 141.498 205.349 140.571 202.466 142.328L195.324 146.616C194.152 147.362 192.053 147.684 190.669 147.348L182.625 145.395C179.333 144.596 175.985 146.636 175.186 149.928L173.233 157.972C172.906 159.319 171.657 161.036 170.448 161.773L163.381 166.079C160.498 167.835 159.571 171.651 161.328 174.534L165.634 181.602C166.371 182.81 166.693 184.909 166.366 186.256L164.413 194.3C163.614 197.592 165.654 200.94 168.946 201.739L176.99 203.692C178.337 204.019 180.054 205.268 180.791 206.477L185.097 213.545C186.853 216.427 190.669 217.354 193.552 215.597L200.62 211.291C201.829 210.555 203.927 210.232 205.274 210.559L213.318 212.512C216.61 213.311 219.958 211.271 220.758 207.979L222.71 199.935C223.037 198.588 224.286 196.871 225.495 196.135L232.563 191.828C235.549 190.137 236.475 186.32 234.681 183.429ZM185.76 164.143C186.259 162.085 188.352 160.81 190.409 161.31C192.467 161.809 193.742 163.902 193.242 165.959C192.743 168.017 190.688 169.301 188.593 168.792C186.535 168.293 185.26 166.201 185.76 164.143ZM185.553 189.963C184.855 190.388 184.081 190.478 183.37 190.305C182.659 190.132 182.012 189.698 181.587 189.001C180.765 187.652 181.201 185.856 182.55 185.035L210.447 168.037C211.796 167.215 213.592 167.651 214.413 169C215.235 170.348 214.799 172.144 213.45 172.965L185.553 189.963ZM205.591 196.69C203.496 196.182 202.221 194.089 202.72 192.032C203.22 189.974 205.312 188.699 207.37 189.199C209.428 189.698 210.703 191.79 210.203 193.848C209.703 195.906 207.648 197.19 205.591 196.69Z" fill="#FF981F"/>
<path d="M144.019 183.461L136.842 171.682C133.915 166.878 135.459 160.517 140.263 157.59L152.042 150.413C154.057 149.185 156.139 146.323 156.684 144.078L159.939 130.672C161.271 125.184 166.85 121.785 172.338 123.117L185.744 126.372C187.989 126.917 191.487 126.38 193.502 125.152L205.281 117.975C210.085 115.047 216.446 116.592 219.373 121.396L226.55 133.175C227.778 135.19 230.64 137.271 232.885 137.816L246.291 141.071C251.778 142.403 255.178 147.983 253.846 153.47L250.591 166.877C250.046 169.121 250.583 172.62 251.811 174.634L258.988 186.414C261.915 191.218 260.371 197.578 255.567 200.506L243.787 207.683C241.773 208.911 239.691 211.773 239.146 214.018L235.891 227.423C234.559 232.911 228.98 236.311 223.492 234.979L210.086 231.724C207.841 231.179 204.343 231.716 202.328 232.944L190.549 240.121C185.745 243.048 179.384 241.504 176.457 236.7L169.28 224.92C168.052 222.906 165.19 220.824 162.945 220.279L149.539 217.024C144.052 215.692 140.652 210.112 141.984 204.625L145.239 191.219C145.799 188.912 145.262 185.414 144.019 183.461Z" stroke="#FF981F" stroke-width="2" stroke-linecap="round" stroke-linejoin="round"/>
</g>
<g opacity="0.4">
<path d="M290.681 15.4285L286.375 8.3611C285.638 7.1522 285.316 5.05338 285.643 3.70651L287.605 -4.37475C288.404 -7.66711 286.364 -11.0148 283.072 -11.8142L275.028 -13.767C273.681 -14.094 271.964 -15.3429 271.227 -16.5518L266.921 -23.6193C265.165 -26.502 261.349 -27.4285 258.466 -25.6721L251.324 -21.384C250.152 -20.6384 248.053 -20.3159 246.669 -20.652L238.625 -22.6049C235.333 -23.4042 231.985 -21.3644 231.186 -18.0721L229.233 -10.0282C228.906 -8.68136 227.657 -6.96403 226.448 -6.22745L219.381 -1.92127C216.498 -0.16481 215.571 3.65134 217.328 6.53411L221.634 13.6015C222.371 14.8105 222.693 16.9093 222.366 18.2561L220.413 26.3C219.614 29.5923 221.654 32.9401 224.946 33.7394L232.99 35.6923C234.337 36.0193 236.054 37.2682 236.791 38.4771L241.097 45.5445C242.853 48.4273 246.669 49.3538 249.552 47.5973L256.62 43.2911C257.829 42.5545 259.927 42.2321 261.274 42.5591L269.318 44.512C272.61 45.3113 275.958 43.2715 276.758 39.9791L278.71 31.9353C279.037 30.5884 280.286 28.8711 281.495 28.1345L288.563 23.8283C291.549 22.1365 292.475 18.3204 290.681 15.4285ZM241.76 -3.85717C242.259 -5.9149 244.352 -7.18975 246.409 -6.69018C248.467 -6.19061 249.742 -4.09828 249.242 -2.04055C248.743 0.0171756 246.688 1.30111 244.593 0.792459C242.535 0.292888 241.26 -1.79945 241.76 -3.85717ZM241.553 21.9634C240.855 22.3883 240.081 22.4776 239.37 22.305C238.659 22.1325 238.012 21.698 237.587 21.0006C236.765 19.6522 237.201 17.8563 238.55 17.0348L266.447 0.0367C267.796 -0.784872 269.592 -0.348883 270.413 0.999508C271.235 2.3479 270.799 4.14373 269.45 4.96531L241.553 21.9634ZM261.591 28.6902C259.496 28.1816 258.221 26.0893 258.72 24.0315C259.22 21.9738 261.312 20.6989 263.37 21.1985C265.428 21.6981 266.703 23.7904 266.203 25.8481C265.703 27.9059 263.648 29.1898 261.591 28.6902Z" fill="#FF981F"/>
<path d="M200.019 15.4614L192.842 3.6822C189.915 -1.12242 191.459 -7.48272 196.263 -10.4102L208.042 -17.5873C210.057 -18.8149 212.139 -21.6771 212.684 -23.9219L215.939 -37.3285C217.271 -42.8157 222.85 -46.2152 228.338 -44.883L241.744 -41.6282C243.989 -41.0832 247.487 -41.6205 249.502 -42.8481L261.281 -50.0252C266.085 -52.9526 272.446 -51.4085 275.373 -46.6039L282.55 -34.8247C283.778 -32.8098 286.64 -30.7285 288.885 -30.1835L302.291 -26.9287C307.778 -25.5965 311.178 -20.0172 309.846 -14.5299L306.591 -1.12334C306.046 1.12145 306.583 4.61952 307.811 6.63436L314.988 18.4136C317.915 23.2182 316.371 29.5785 311.567 32.5059L299.787 39.683C297.773 40.9106 295.691 43.7729 295.146 46.0177L291.891 59.4234C290.559 64.9107 284.98 68.311 279.492 66.9788L266.086 63.724C263.841 63.179 260.343 63.7162 258.328 64.9439L246.549 72.1209C241.745 75.0484 235.384 73.5042 232.457 68.6996L225.28 56.9204C224.052 54.9056 221.19 52.8242 218.945 52.2792L205.539 49.0245C200.052 47.6923 196.652 42.1121 197.984 36.6248L201.239 23.2191C201.799 20.9119 201.262 17.4139 200.019 15.4614Z" stroke="#FF981F" stroke-width="2" stroke-linecap="round" stroke-linejoin="round"/>
</g>
<g opacity="0.4">
<path d="M34.6812 55.4285L30.375 48.3611C29.6384 47.1522 29.316 45.0534 29.643 43.7065L31.6049 35.6253C32.4042 32.3329 30.3645 28.9852 27.0721 28.1858L19.0283 26.233C17.6814 25.906 15.9641 24.6571 15.2275 23.4482L10.9213 16.3807C9.16485 13.498 5.3487 12.5715 2.46593 14.3279L-4.67633 18.616C-5.84783 19.3616 -7.94664 19.6841 -9.33093 19.348L-17.3748 17.3951C-20.6671 16.5958 -24.0149 18.6356 -24.8142 21.9279L-26.767 29.9718C-27.094 31.3186 -28.343 33.036 -29.5519 33.7726L-36.6193 38.0787C-39.5021 39.8352 -40.4285 43.6513 -38.6721 46.5341L-34.3659 53.6015C-33.6293 54.8105 -33.3069 56.9093 -33.6339 58.2561L-35.5867 66.3C-36.3861 69.5923 -34.3463 72.9401 -31.0539 73.7394L-23.0101 75.6923C-21.6632 76.0193 -19.9459 77.2682 -19.2093 78.4771L-14.9031 85.5445C-13.1467 88.4273 -9.33052 89.3538 -6.44775 87.5973L0.619691 83.2911C1.82859 82.5545 3.92741 82.2321 5.27429 82.5591L13.3181 84.512C16.6105 85.3113 19.9582 83.2715 20.7575 79.9791L22.7104 71.9353C23.0374 70.5884 24.2863 68.8711 25.4952 68.1345L32.5627 63.8283C35.5486 62.1365 36.4751 58.3204 34.6812 55.4285ZM-14.2403 36.1428C-13.7408 34.0851 -11.6484 32.8102 -9.59071 33.3098C-7.53298 33.8094 -6.25813 35.9017 -6.7577 37.9594C-7.25727 40.0172 -9.31219 41.3011 -11.4073 40.7925C-13.4651 40.2929 -14.7399 38.2006 -14.2403 36.1428ZM-14.4474 61.9634C-15.1448 62.3883 -15.9193 62.4776 -16.6301 62.305C-17.341 62.1325 -17.9882 61.698 -18.4132 61.0006C-19.2348 59.6522 -18.7988 57.8563 -17.4504 57.0348L10.4474 40.0367C11.7958 39.2151 13.5916 39.6511 14.4132 40.9995C15.2348 42.3479 14.7988 44.1437 13.4504 44.9653L-14.4474 61.9634ZM5.59072 68.6902C3.49559 68.1816 2.22073 66.0893 2.7203 64.0315C3.21987 61.9738 5.31221 60.6989 7.36993 61.1985C9.42766 61.6981 10.7025 63.7904 10.2029 65.8481C9.70337 67.9059 7.64845 69.1898 5.59072 68.6902Z" fill="#FF981F"/>
<path d="M-55.9811 55.4614L-63.1579 43.6822C-66.0854 38.8776 -64.5412 32.5173 -59.7366 29.5898L-47.9576 22.4127C-45.9427 21.1851 -43.8612 18.3229 -43.3162 16.0781L-40.0614 2.67153C-38.7292 -2.81574 -33.1497 -6.21519 -27.6624 -4.883L-14.256 -1.62823C-12.0112 -1.08325 -8.51322 -1.62046 -6.49838 -2.84809L5.28064 -10.0252C10.0853 -12.9526 16.4456 -11.4085 19.373 -6.60387L26.5501 5.17534C27.7777 7.19018 30.6398 9.27149 32.8846 9.81647L46.2911 13.0713C51.7784 14.4035 55.1779 19.9828 53.8457 25.4701L50.5909 38.8767C50.0459 41.1215 50.5833 44.6195 51.8109 46.6344L58.988 58.4136C61.9154 63.2182 60.3713 69.5785 55.5667 72.5059L43.7875 79.683C41.7726 80.9106 39.6911 83.7729 39.1461 86.0177L35.8915 99.4234C34.5593 104.911 28.9797 108.311 23.4924 106.979L10.0859 103.724C7.84111 103.179 4.34328 103.716 2.32844 104.944L-9.45077 112.121C-14.2554 115.048 -20.6157 113.504 -23.5431 108.7L-30.72 96.9204C-31.9476 94.9056 -34.8099 92.8242 -37.0547 92.2792L-50.4611 89.0245C-55.9483 87.6923 -59.3478 82.1121 -58.0156 76.6248L-54.761 63.2191C-54.2009 60.9119 -54.7383 57.4139 -55.9811 55.4614Z" stroke="#FF981F" stroke-width="2" stroke-linecap="round" stroke-linejoin="round"/>
</g>
</svg>
